<svg width="20" height="20" viewBox="0 0 20 20" fill="none" xmlns="http://www.w3.org/2000/svg">
<g clip-path="url(#clip0_2978_164972)">
<path d="M19.7654 3.43452L16.5655 0.234618C16.4912 0.160239 16.403 0.101234 16.3058 0.0609756C16.2087 0.0207175 16.1046 -3.8147e-06 15.9995 -3.8147e-06C15.8944 -3.8147e-06 15.7903 0.0207175 15.6932 0.0609756C15.596 0.101234 15.5078 0.160239 15.4335 0.234618L5.83382 9.83432C5.75955 9.90866 5.70066 9.99692 5.66051 10.094C5.62036 10.1911 5.59974 10.2952 5.59982 10.4003V13.6002C5.59982 13.8124 5.68411 14.0158 5.83413 14.1659C5.98416 14.3159 6.18763 14.4002 6.3998 14.4002H9.5997C9.70478 14.4003 9.80886 14.3796 9.90597 14.3395C10.0031 14.2993 10.0913 14.2404 10.1657 14.1662L19.7654 4.56648C19.8398 4.49219 19.8988 4.40396 19.939 4.30684C19.9793 4.20973 20 4.10563 20 4.0005C20 3.89537 19.9793 3.79127 19.939 3.69416C19.8988 3.59704 19.8398 3.50881 19.7654 3.43452ZM9.26871 12.8002H7.19977V10.7313L13.5996 4.33149L15.6685 6.40042L9.26871 12.8002ZM16.7995 5.26946L14.7305 3.20053L15.9995 1.93156L18.0684 4.0005L16.7995 5.26946ZM19.1994 9.60032V18.4C19.1994 18.8244 19.0308 19.2313 18.7308 19.5314C18.4307 19.8314 18.0238 20 17.5994 20H1.59995C1.17562 20 0.768663 19.8314 0.468614 19.5314C0.168566 19.2313 0 18.8244 0 18.4V2.40055C0 1.97622 0.168566 1.56926 0.468614 1.26921C0.768663 0.969166 1.17562 0.8006 1.59995 0.8006H10.3997C10.6118 0.8006 10.8153 0.884883 10.9653 1.03491C11.1154 1.18493 11.1996 1.38841 11.1996 1.60058C11.1996 1.81274 11.1154 2.01622 10.9653 2.16624C10.8153 2.31627 10.6118 2.40055 10.3997 2.40055H1.59995V18.4H17.5994V9.60032C17.5994 9.38816 17.6837 9.18468 17.8338 9.03466C17.9838 8.88463 18.1873 8.80035 18.3994 8.80035C18.6116 8.80035 18.8151 8.88463 18.9651 9.03466C19.1151 9.18468 19.1994 9.38816 19.1994 9.60032Z" fill="#734BC8"/>
</g>
<defs>
<clipPath id="clip0_2978_164972">
<rect width="20" height="20" fill="white"/>
</clipPath>
</defs>
</svg>
