<svg width="20" height="20" viewBox="0 0 20 20" fill="none" xmlns="http://www.w3.org/2000/svg">
    <g clip-path="url(#clip0_22_2)">
        <path fill-rule="evenodd" clip-rule="evenodd" d="M10 15C12.7614 15 15 12.7614 15 10C15 7.23857 12.7614 5 10 5C7.23857 5 5 7.23857 5 10C5 12.7614 7.23857 15 10 15ZM10 13.3333C11.8409 13.3333 13.3333 11.8409 13.3333 10C13.3333 8.15905 11.8409 6.66667 10 6.66667C8.15905 6.66667 6.66667 8.15905 6.66667 10C6.66667 11.8409 8.15905 13.3333 10 13.3333Z" fill="#0F0F0F"/>
        <path d="M15 4.16666C14.5397 4.16666 14.1667 4.53976 14.1667 4.99999C14.1667 5.46022 14.5397 5.83332 15 5.83332C15.4602 5.83332 15.8333 5.46022 15.8333 4.99999C15.8333 4.53976 15.4602 4.16666 15 4.16666Z" fill="#0F0F0F"/>
        <path fill-rule="evenodd" clip-rule="evenodd" d="M1.37831 3.56339C0.833344 4.63295 0.833344 6.03308 0.833344 8.83334V11.1667C0.833344 13.9669 0.833344 15.3671 1.37831 16.4366C1.85768 17.3774 2.62258 18.1423 3.56339 18.6217C4.63295 19.1667 6.03308 19.1667 8.83334 19.1667H11.1667C13.9669 19.1667 15.3671 19.1667 16.4366 18.6217C17.3774 18.1423 18.1423 17.3774 18.6217 16.4366C19.1667 15.3671 19.1667 13.9669 19.1667 11.1667V8.83334C19.1667 6.03308 19.1667 4.63295 18.6217 3.56339C18.1423 2.62258 17.3774 1.85768 16.4366 1.37831C15.3671 0.833344 13.9669 0.833344 11.1667 0.833344H8.83334C6.03308 0.833344 4.63295 0.833344 3.56339 1.37831C2.62258 1.85768 1.85768 2.62258 1.37831 3.56339ZM11.1667 2.50001H8.83334C7.40571 2.50001 6.43522 2.50131 5.68508 2.56259C4.95438 2.62229 4.58071 2.7305 4.32004 2.86332C3.69283 3.1829 3.1829 3.69283 2.86332 4.32004C2.7305 4.58071 2.62229 4.95438 2.56259 5.68508C2.50131 6.43522 2.50001 7.40571 2.50001 8.83334V11.1667C2.50001 12.5943 2.50131 13.5648 2.56259 14.3149C2.62229 15.0457 2.7305 15.4193 2.86332 15.68C3.1829 16.3072 3.69283 16.8171 4.32004 17.1367C4.58071 17.2695 4.95438 17.3778 5.68508 17.4374C6.43522 17.4987 7.40571 17.5 8.83334 17.5H11.1667C12.5943 17.5 13.5648 17.4987 14.3149 17.4374C15.0457 17.3778 15.4193 17.2695 15.68 17.1367C16.3072 16.8171 16.8171 16.3072 17.1367 15.68C17.2695 15.4193 17.3778 15.0457 17.4374 14.3149C17.4987 13.5648 17.5 12.5943 17.5 11.1667V8.83334C17.5 7.40571 17.4987 6.43522 17.4374 5.68508C17.3778 4.95438 17.2695 4.58071 17.1367 4.32004C16.8171 3.69283 16.3072 3.1829 15.68 2.86332C15.4193 2.7305 15.0457 2.62229 14.3149 2.56259C13.5648 2.50131 12.5943 2.50001 11.1667 2.50001Z" fill="#0F0F0F"/>
    </g>
    <defs>
        <clipPath id="clip0_22_2">
            <rect width="20" height="20" fill="white"/>
        </clipPath>
    </defs>
</svg>
