<svg width="390" height="92" viewBox="0 0 390 92" fill="none" xmlns="http://www.w3.org/2000/svg">
<g clip-path="url(#clip0_46_2)">
<path d="M33 91.656C25.4053 91.656 18.664 90.7173 12.776 88.84C6.88799 87.048 2.91999 84.1467 0.871995 80.136C0.445328 79.2827 0.231995 78.728 0.231995 78.472C0.231995 78.3013 0.317328 78.216 0.487995 78.216C0.829328 78.216 1.42666 78.5147 2.27999 79.112C5.52266 81.3307 9.66132 82.7813 14.696 83.464C19.7307 84.1467 24.7653 84.488 29.8 84.488C34.664 84.488 39.912 84.0613 45.544 83.208C51.2613 82.3547 56.9787 81.1173 62.696 79.496C68.4987 77.7893 74.1307 75.656 79.592 73.096C85.0533 70.536 90.0453 67.5493 94.568 64.136C101.651 58.76 106.813 53.5547 110.056 48.52C113.299 43.4853 114.92 38.7493 114.92 34.312C114.92 29.448 113.128 25.1387 109.544 21.384C105.96 17.6293 100.968 14.728 94.568 12.68C88.2533 10.5467 80.8293 9.47999 72.296 9.47999C69.224 9.47999 66.0667 9.60799 62.824 9.86399C57.3627 10.376 51.9013 11.3147 46.44 12.68C41.064 13.96 35.9013 15.5813 30.952 17.544C26.088 19.5067 21.736 21.64 17.896 23.944C14.056 26.248 11.0267 28.6373 8.80799 31.112C6.67466 33.5013 5.60799 35.848 5.60799 38.152C5.60799 39.6027 6.11999 41.0533 7.14399 42.504C7.39999 42.76 7.52799 43.1013 7.52799 43.528C7.52799 43.8693 7.39999 44.1253 7.14399 44.296C6.88799 44.3813 6.54666 44.2533 6.11999 43.912C5.35199 43.0587 4.62666 41.736 3.94399 39.944C3.26132 38.0667 2.91999 35.976 2.91999 33.672C2.91999 31.368 3.43199 28.9787 4.45599 26.504C5.56532 23.944 7.48532 21.5973 10.216 19.464C13.4587 16.904 17.4693 14.5147 22.248 12.296C27.0267 9.99199 32.232 7.98665 37.864 6.27999C43.5813 4.57332 49.4267 3.25065 55.4 2.31199C61.4587 1.37332 67.432 0.903992 73.32 0.903992C83.4747 0.903992 91.7947 2.43999 98.28 5.51198C104.851 8.49865 109.715 12.5093 112.872 17.544C116.029 22.4933 117.608 27.9547 117.608 33.928C117.608 39.3893 116.285 44.9787 113.64 50.696C111.08 56.4133 107.283 61.832 102.248 66.952C97.2987 72.072 91.1547 76.5093 83.816 80.264C79.1227 82.568 73.9173 84.5733 68.2 86.28C62.4827 87.9867 56.5947 89.3093 50.536 90.248C44.4773 91.1867 38.632 91.656 33 91.656ZM20.072 74.376C19.4747 74.376 19.176 73.7787 19.176 72.584C19.176 71.3893 19.816 69.4267 21.096 66.696C22.4613 63.9653 24.2533 60.808 26.472 57.224C28.6907 53.64 31.1227 49.8853 33.768 45.96C36.4987 41.9493 39.2293 38.0667 41.96 34.312C44.6907 30.472 47.2507 27.016 49.64 23.944C52.0293 20.7867 54.0347 18.312 55.656 16.52C57.3627 14.6427 58.4293 13.704 58.856 13.704H60.008C60.9467 13.704 61.416 13.9173 61.416 14.344C61.416 14.7707 61.0747 15.3253 60.392 16.008C57.4907 19.1653 54.4187 22.7493 51.176 26.76C48.0187 30.7707 44.8613 34.9947 41.704 39.432C38.5467 43.784 35.56 48.0933 32.744 52.36C30.0133 56.6267 27.624 60.5947 25.576 64.264C23.528 67.9333 22.0347 71.0053 21.096 73.48C20.84 74.0773 20.4987 74.376 20.072 74.376ZM115.915 85.128C113.27 85.128 111.222 84.3173 109.771 82.696C108.32 80.9893 107.595 78.8133 107.595 76.168C107.595 73.6933 108.235 70.9627 109.515 67.976C110.88 64.9893 113.014 61.96 115.915 58.888C118.902 55.6453 122.614 53.0427 127.051 51.08C131.488 49.032 135.712 48.008 139.723 48.008C142.966 48.008 145.739 48.7333 148.043 50.184C150.347 51.5493 151.883 53.2987 152.651 55.432C153.59 55.432 154.742 55.688 156.107 56.2C157.558 56.712 158.283 57.6507 158.283 59.016C158.283 59.9547 157.814 61.0213 156.875 62.216C156.278 63.0693 155.211 64.3493 153.675 66.056C152.224 67.7627 150.859 69.5973 149.579 71.56C148.555 73.096 147.744 74.5467 147.147 75.912C146.55 77.192 146.251 78.3013 146.251 79.24C146.251 80.52 146.891 81.16 148.171 81.16C149.622 81.16 151.798 80.3493 154.699 78.728C157.856 76.936 160.886 74.888 163.787 72.584C166.688 70.28 168.95 68.4453 170.571 67.08C170.998 66.7387 171.296 66.568 171.467 66.568C171.808 66.568 171.979 66.7813 171.979 67.208C171.979 67.72 171.766 68.1893 171.339 68.616C170.571 69.2987 169.078 70.5787 166.859 72.456C164.64 74.3333 162.08 76.296 159.179 78.344C156.363 80.392 153.59 82.056 150.859 83.336C149.494 83.9333 148.214 84.4027 147.019 84.744C145.91 85 144.886 85.128 143.947 85.128C141.643 85.128 139.894 84.488 138.699 83.208C137.504 81.8427 136.907 80.0933 136.907 77.96C136.907 77.1067 137.035 76.2107 137.291 75.272C137.547 74.3333 137.846 73.3947 138.187 72.456L139.083 70.28C136.864 73.0107 134.646 75.3147 132.427 77.192C130.208 78.984 127.99 80.5627 125.771 81.928C123.894 83.0373 122.102 83.848 120.395 84.36C118.774 84.872 117.28 85.128 115.915 85.128ZM119.883 81.8C121.419 81.8 123.638 80.904 126.539 79.112C129.44 77.2347 132.811 74.376 136.651 70.536C137.163 70.024 138.102 69.128 139.467 67.848C140.918 66.4827 142.454 64.9893 144.075 63.368C145.696 61.6613 147.062 59.9973 148.171 58.376C149.366 56.6693 149.963 55.2613 149.963 54.152C149.963 52.5307 148.555 51.72 145.739 51.72C143.264 51.72 140.278 52.7013 136.779 54.664C133.366 56.5413 130.08 59.3573 126.923 63.112C123.68 66.952 121.291 70.28 119.755 73.096C118.304 75.8267 117.579 77.9173 117.579 79.368C117.579 80.9893 118.347 81.8 119.883 81.8ZM175.126 85C174.187 85 173.462 84.872 172.95 84.616C174.145 82.9093 175.254 80.648 176.278 77.832C177.387 75.016 178.369 72.1573 179.222 69.256C180.075 66.3547 180.715 63.88 181.142 61.832C181.654 59.6987 181.91 58.5467 181.91 58.376L176.534 63.752C175.425 64.8613 174.23 66.0133 172.95 67.208C171.67 68.4027 170.39 69.512 169.11 70.536C168.769 70.792 168.47 71.048 168.214 71.304C167.873 71.4747 167.574 71.56 167.318 71.56C166.977 71.56 166.806 71.3893 166.806 71.048C166.806 70.536 167.19 69.9387 167.958 69.256C170.347 67.1227 172.95 64.7333 175.766 62.088C178.667 59.4427 180.801 56.6693 182.166 53.768C182.593 52.744 182.806 51.8053 182.806 50.952C182.806 49.8427 182.593 49.16 182.166 48.904C181.825 48.648 181.654 48.3067 181.654 47.88C181.654 47.112 182.038 46.728 182.806 46.728C183.318 46.728 183.958 46.984 184.726 47.496C185.579 47.9227 186.219 48.3493 186.646 48.776C187.67 49.8 188.31 51.08 188.566 52.616C188.907 54.152 189.078 55.7307 189.078 57.352C189.078 59.7413 188.822 62.4293 188.31 65.416C187.883 68.4027 187.243 71.304 186.39 74.12C185.537 76.8507 184.47 79.1973 183.19 81.16L182.934 81.544C183.446 81.2027 183.873 80.904 184.214 80.648C184.641 80.3067 184.939 80.0507 185.11 79.88C187.67 77.32 189.889 74.4613 191.766 71.304C193.643 68.0613 195.393 64.776 197.014 61.448C198.635 58.0347 200.299 54.8347 202.006 51.848C203.713 48.8613 205.675 46.3013 207.894 44.168C209.174 42.888 210.838 42.248 212.886 42.248C213.995 42.248 215.105 42.5893 216.214 43.272C217.323 43.8693 218.134 44.808 218.646 46.088C218.817 46.4293 218.731 46.6427 218.39 46.728C218.134 46.8133 217.921 46.6853 217.75 46.344C217.238 45.064 216.427 44.424 215.318 44.424C214.209 44.424 212.758 45.2347 210.966 46.856C207.894 49.8427 205.121 53.3413 202.646 57.352C200.171 61.2773 197.654 65.288 195.094 69.384C192.619 73.3947 189.718 77.064 186.39 80.392C185.025 81.7573 183.233 82.8667 181.014 83.72C178.795 84.5733 176.833 85 175.126 85ZM235.919 45.832C234.724 45.832 233.828 45.448 233.231 44.68C232.634 43.912 232.335 43.1013 232.335 42.248C232.335 40.5413 233.146 38.8773 234.767 37.256C236.388 35.5493 238.095 34.696 239.887 34.696C241.082 34.696 241.978 35.08 242.575 35.848C243.172 36.616 243.471 37.4267 243.471 38.28C243.471 40.072 242.66 41.7787 241.039 43.4C239.503 45.0213 237.796 45.832 235.919 45.832ZM216.335 85.128C212.836 85.128 210.447 84.4027 209.167 82.952C207.972 81.416 207.375 79.7093 207.375 77.832C207.375 76.296 207.631 74.8453 208.143 73.48C208.655 72.0293 209.082 71.0053 209.423 70.408C209.935 69.5547 210.618 68.5733 211.471 67.464C212.41 66.3547 213.434 65.16 214.543 63.88C212.836 65.3307 211.215 66.7387 209.679 68.104C208.228 69.4693 207.034 70.4933 206.095 71.176C205.839 71.432 205.583 71.56 205.327 71.56C204.986 71.56 204.815 71.3467 204.815 70.92C204.815 70.2373 205.284 69.5547 206.223 68.872C208.442 66.9947 210.575 64.9467 212.623 62.728C214.756 60.5093 216.762 58.4613 218.639 56.584C220.516 54.6213 222.18 53.256 223.631 52.488C225.167 51.6347 226.404 51.08 227.343 50.824C228.282 50.568 229.05 50.44 229.647 50.44C230.586 50.44 231.268 50.6107 231.695 50.952C232.122 51.208 232.207 51.5067 231.951 51.848C230.5 53.2987 229.05 55.176 227.599 57.48C226.234 59.6987 224.954 62.0453 223.759 64.52C222.564 66.9947 221.583 69.3413 220.815 71.56C220.132 73.7787 219.791 75.656 219.791 77.192C219.791 79.3253 220.644 80.392 222.351 80.392C223.972 80.392 226.063 79.6667 228.623 78.216C231.268 76.68 233.999 74.76 236.815 72.456C239.716 70.152 242.404 67.8907 244.879 65.672C245.22 65.3307 245.519 65.16 245.775 65.16C246.202 65.16 246.415 65.3733 246.415 65.8C246.5 66.2267 246.415 66.5253 246.159 66.696C243.343 69.3413 240.143 72.1147 236.559 75.016C233.06 77.832 229.519 80.2213 225.935 82.184C222.436 84.1467 219.236 85.128 216.335 85.128ZM274.625 91.656C267.03 91.656 260.289 90.7173 254.401 88.84C248.513 87.048 244.545 84.1467 242.497 80.136C242.07 79.2827 241.857 78.728 241.857 78.472C241.857 78.3013 241.942 78.216 242.113 78.216C242.454 78.216 243.052 78.5147 243.905 79.112C247.148 81.3307 251.286 82.7813 256.321 83.464C261.356 84.1467 266.39 84.488 271.425 84.488C276.289 84.488 281.537 84.0613 287.169 83.208C292.886 82.3547 298.604 81.1173 304.321 79.496C310.124 77.7893 315.756 75.656 321.217 73.096C326.678 70.536 331.67 67.5493 336.193 64.136C343.276 58.76 348.438 53.5547 351.681 48.52C354.924 43.4853 356.545 38.7493 356.545 34.312C356.545 29.448 354.753 25.1387 351.169 21.384C347.585 17.6293 342.593 14.728 336.193 12.68C329.878 10.5467 322.454 9.47999 313.921 9.47999C310.849 9.47999 307.692 9.60799 304.449 9.86399C298.988 10.376 293.526 11.3147 288.065 12.68C282.689 13.96 277.526 15.5813 272.577 17.544C267.713 19.5067 263.361 21.64 259.521 23.944C255.681 26.248 252.652 28.6373 250.433 31.112C248.3 33.5013 247.233 35.848 247.233 38.152C247.233 39.6027 247.745 41.0533 248.769 42.504C249.025 42.76 249.153 43.1013 249.153 43.528C249.153 43.8693 249.025 44.1253 248.769 44.296C248.513 44.3813 248.172 44.2533 247.745 43.912C246.977 43.0587 246.252 41.736 245.569 39.944C244.886 38.0667 244.545 35.976 244.545 33.672C244.545 31.368 245.057 28.9787 246.081 26.504C247.19 23.944 249.11 21.5973 251.841 19.464C255.084 16.904 259.094 14.5147 263.873 12.296C268.652 9.99199 273.857 7.98665 279.489 6.27999C285.206 4.57332 291.052 3.25065 297.025 2.31199C303.084 1.37332 309.057 0.903992 314.945 0.903992C325.1 0.903992 333.42 2.43999 339.905 5.51198C346.476 8.49865 351.34 12.5093 354.497 17.544C357.654 22.4933 359.233 27.9547 359.233 33.928C359.233 39.3893 357.91 44.9787 355.265 50.696C352.705 56.4133 348.908 61.832 343.873 66.952C338.924 72.072 332.78 76.5093 325.441 80.264C320.748 82.568 315.542 84.5733 309.825 86.28C304.108 87.9867 298.22 89.3093 292.161 90.248C286.102 91.1867 280.257 91.656 274.625 91.656ZM261.697 74.376C261.1 74.376 260.801 73.7787 260.801 72.584C260.801 71.3893 261.441 69.4267 262.721 66.696C264.086 63.9653 265.878 60.808 268.097 57.224C270.316 53.64 272.748 49.8853 275.393 45.96C278.124 41.9493 280.854 38.0667 283.585 34.312C286.316 30.472 288.876 27.016 291.265 23.944C293.654 20.7867 295.66 18.312 297.281 16.52C298.988 14.6427 300.054 13.704 300.481 13.704H301.633C302.572 13.704 303.041 13.9173 303.041 14.344C303.041 14.7707 302.7 15.3253 302.017 16.008C299.116 19.1653 296.044 22.7493 292.801 26.76C289.644 30.7707 286.486 34.9947 283.329 39.432C280.172 43.784 277.185 48.0933 274.369 52.36C271.638 56.6267 269.249 60.5947 267.201 64.264C265.153 67.9333 263.66 71.0053 262.721 73.48C262.465 74.0773 262.124 74.376 261.697 74.376ZM379.044 45.832C377.849 45.832 376.953 45.448 376.356 44.68C375.759 43.912 375.46 43.1013 375.46 42.248C375.46 40.5413 376.271 38.8773 377.892 37.256C379.513 35.5493 381.22 34.696 383.012 34.696C384.207 34.696 385.103 35.08 385.7 35.848C386.297 36.616 386.596 37.4267 386.596 38.28C386.596 40.072 385.785 41.7787 384.164 43.4C382.628 45.0213 380.921 45.832 379.044 45.832ZM359.46 85.128C355.961 85.128 353.572 84.4027 352.292 82.952C351.097 81.416 350.5 79.7093 350.5 77.832C350.5 76.296 350.756 74.8453 351.268 73.48C351.78 72.0293 352.207 71.0053 352.548 70.408C353.06 69.5547 353.743 68.5733 354.596 67.464C355.535 66.3547 356.559 65.16 357.668 63.88C355.961 65.3307 354.34 66.7387 352.804 68.104C351.353 69.4693 350.159 70.4933 349.22 71.176C348.964 71.432 348.708 71.56 348.452 71.56C348.111 71.56 347.94 71.3467 347.94 70.92C347.94 70.2373 348.409 69.5547 349.348 68.872C351.567 66.9947 353.7 64.9467 355.748 62.728C357.881 60.5093 359.887 58.4613 361.764 56.584C363.641 54.6213 365.305 53.256 366.756 52.488C368.292 51.6347 369.529 51.08 370.468 50.824C371.407 50.568 372.175 50.44 372.772 50.44C373.711 50.44 374.393 50.6107 374.82 50.952C375.247 51.208 375.332 51.5067 375.076 51.848C373.625 53.2987 372.175 55.176 370.724 57.48C369.359 59.6987 368.079 62.0453 366.884 64.52C365.689 66.9947 364.708 69.3413 363.94 71.56C363.257 73.7787 362.916 75.656 362.916 77.192C362.916 79.3253 363.769 80.392 365.476 80.392C367.097 80.392 369.188 79.6667 371.748 78.216C374.393 76.68 377.124 74.76 379.94 72.456C382.841 70.152 385.529 67.8907 388.004 65.672C388.345 65.3307 388.644 65.16 388.9 65.16C389.327 65.16 389.54 65.3733 389.54 65.8C389.625 66.2267 389.54 66.5253 389.284 66.696C386.468 69.3413 383.268 72.1147 379.684 75.016C376.185 77.832 372.644 80.2213 369.06 82.184C365.561 84.1467 362.361 85.128 359.46 85.128Z" fill="#F0F0F1"/>
<mask id="mask0_46_2" style="mask-type:luminance" maskUnits="userSpaceOnUse" x="-1" y="-1" width="392" height="94">
<path d="M391 -1H-1V93H391V-1Z" fill="white"/>
<path d="M33 91.656C25.4053 91.656 18.664 90.7173 12.776 88.84C6.88799 87.048 2.91999 84.1467 0.871995 80.136C0.445328 79.2827 0.231995 78.728 0.231995 78.472C0.231995 78.3013 0.317328 78.216 0.487995 78.216C0.829328 78.216 1.42666 78.5147 2.27999 79.112C5.52266 81.3307 9.66132 82.7813 14.696 83.464C19.7307 84.1467 24.7653 84.488 29.8 84.488C34.664 84.488 39.912 84.0613 45.544 83.208C51.2613 82.3547 56.9787 81.1173 62.696 79.496C68.4987 77.7893 74.1307 75.656 79.592 73.096C85.0533 70.536 90.0453 67.5493 94.568 64.136C101.651 58.76 106.813 53.5547 110.056 48.52C113.299 43.4853 114.92 38.7493 114.92 34.312C114.92 29.448 113.128 25.1387 109.544 21.384C105.96 17.6293 100.968 14.728 94.568 12.68C88.2533 10.5467 80.8293 9.47999 72.296 9.47999C69.224 9.47999 66.0667 9.60799 62.824 9.86399C57.3627 10.376 51.9013 11.3147 46.44 12.68C41.064 13.96 35.9013 15.5813 30.952 17.544C26.088 19.5067 21.736 21.64 17.896 23.944C14.056 26.248 11.0267 28.6373 8.80799 31.112C6.67466 33.5013 5.60799 35.848 5.60799 38.152C5.60799 39.6027 6.11999 41.0533 7.14399 42.504C7.39999 42.76 7.52799 43.1013 7.52799 43.528C7.52799 43.8693 7.39999 44.1253 7.14399 44.296C6.88799 44.3813 6.54666 44.2533 6.11999 43.912C5.35199 43.0587 4.62666 41.736 3.94399 39.944C3.26132 38.0667 2.91999 35.976 2.91999 33.672C2.91999 31.368 3.43199 28.9787 4.45599 26.504C5.56532 23.944 7.48532 21.5973 10.216 19.464C13.4587 16.904 17.4693 14.5147 22.248 12.296C27.0267 9.99199 32.232 7.98665 37.864 6.27999C43.5813 4.57332 49.4267 3.25065 55.4 2.31199C61.4587 1.37332 67.432 0.903992 73.32 0.903992C83.4747 0.903992 91.7947 2.43999 98.28 5.51198C104.851 8.49865 109.715 12.5093 112.872 17.544C116.029 22.4933 117.608 27.9547 117.608 33.928C117.608 39.3893 116.285 44.9787 113.64 50.696C111.08 56.4133 107.283 61.832 102.248 66.952C97.2987 72.072 91.1547 76.5093 83.816 80.264C79.1227 82.568 73.9173 84.5733 68.2 86.28C62.4827 87.9867 56.5947 89.3093 50.536 90.248C44.4773 91.1867 38.632 91.656 33 91.656ZM20.072 74.376C19.4747 74.376 19.176 73.7787 19.176 72.584C19.176 71.3893 19.816 69.4267 21.096 66.696C22.4613 63.9653 24.2533 60.808 26.472 57.224C28.6907 53.64 31.1227 49.8853 33.768 45.96C36.4987 41.9493 39.2293 38.0667 41.96 34.312C44.6907 30.472 47.2507 27.016 49.64 23.944C52.0293 20.7867 54.0347 18.312 55.656 16.52C57.3627 14.6427 58.4293 13.704 58.856 13.704H60.008C60.9467 13.704 61.416 13.9173 61.416 14.344C61.416 14.7707 61.0747 15.3253 60.392 16.008C57.4907 19.1653 54.4187 22.7493 51.176 26.76C48.0187 30.7707 44.8613 34.9947 41.704 39.432C38.5467 43.784 35.56 48.0933 32.744 52.36C30.0133 56.6267 27.624 60.5947 25.576 64.264C23.528 67.9333 22.0347 71.0053 21.096 73.48C20.84 74.0773 20.4987 74.376 20.072 74.376ZM115.915 85.128C113.27 85.128 111.222 84.3173 109.771 82.696C108.32 80.9893 107.595 78.8133 107.595 76.168C107.595 73.6933 108.235 70.9627 109.515 67.976C110.88 64.9893 113.014 61.96 115.915 58.888C118.902 55.6453 122.614 53.0427 127.051 51.08C131.488 49.032 135.712 48.008 139.723 48.008C142.966 48.008 145.739 48.7333 148.043 50.184C150.347 51.5493 151.883 53.2987 152.651 55.432C153.59 55.432 154.742 55.688 156.107 56.2C157.558 56.712 158.283 57.6507 158.283 59.016C158.283 59.9547 157.814 61.0213 156.875 62.216C156.278 63.0693 155.211 64.3493 153.675 66.056C152.224 67.7627 150.859 69.5973 149.579 71.56C148.555 73.096 147.744 74.5467 147.147 75.912C146.55 77.192 146.251 78.3013 146.251 79.24C146.251 80.52 146.891 81.16 148.171 81.16C149.622 81.16 151.798 80.3493 154.699 78.728C157.856 76.936 160.886 74.888 163.787 72.584C166.688 70.28 168.95 68.4453 170.571 67.08C170.998 66.7387 171.296 66.568 171.467 66.568C171.808 66.568 171.979 66.7813 171.979 67.208C171.979 67.72 171.766 68.1893 171.339 68.616C170.571 69.2987 169.078 70.5787 166.859 72.456C164.64 74.3333 162.08 76.296 159.179 78.344C156.363 80.392 153.59 82.056 150.859 83.336C149.494 83.9333 148.214 84.4027 147.019 84.744C145.91 85 144.886 85.128 143.947 85.128C141.643 85.128 139.894 84.488 138.699 83.208C137.504 81.8427 136.907 80.0933 136.907 77.96C136.907 77.1067 137.035 76.2107 137.291 75.272C137.547 74.3333 137.846 73.3947 138.187 72.456L139.083 70.28C136.864 73.0107 134.646 75.3147 132.427 77.192C130.208 78.984 127.99 80.5627 125.771 81.928C123.894 83.0373 122.102 83.848 120.395 84.36C118.774 84.872 117.28 85.128 115.915 85.128ZM119.883 81.8C121.419 81.8 123.638 80.904 126.539 79.112C129.44 77.2347 132.811 74.376 136.651 70.536C137.163 70.024 138.102 69.128 139.467 67.848C140.918 66.4827 142.454 64.9893 144.075 63.368C145.696 61.6613 147.062 59.9973 148.171 58.376C149.366 56.6693 149.963 55.2613 149.963 54.152C149.963 52.5307 148.555 51.72 145.739 51.72C143.264 51.72 140.278 52.7013 136.779 54.664C133.366 56.5413 130.08 59.3573 126.923 63.112C123.68 66.952 121.291 70.28 119.755 73.096C118.304 75.8267 117.579 77.9173 117.579 79.368C117.579 80.9893 118.347 81.8 119.883 81.8ZM175.126 85C174.187 85 173.462 84.872 172.95 84.616C174.145 82.9093 175.254 80.648 176.278 77.832C177.387 75.016 178.369 72.1573 179.222 69.256C180.075 66.3547 180.715 63.88 181.142 61.832C181.654 59.6987 181.91 58.5467 181.91 58.376L176.534 63.752C175.425 64.8613 174.23 66.0133 172.95 67.208C171.67 68.4027 170.39 69.512 169.11 70.536C168.769 70.792 168.47 71.048 168.214 71.304C167.873 71.4747 167.574 71.56 167.318 71.56C166.977 71.56 166.806 71.3893 166.806 71.048C166.806 70.536 167.19 69.9387 167.958 69.256C170.347 67.1227 172.95 64.7333 175.766 62.088C178.667 59.4427 180.801 56.6693 182.166 53.768C182.593 52.744 182.806 51.8053 182.806 50.952C182.806 49.8427 182.593 49.16 182.166 48.904C181.825 48.648 181.654 48.3067 181.654 47.88C181.654 47.112 182.038 46.728 182.806 46.728C183.318 46.728 183.958 46.984 184.726 47.496C185.579 47.9227 186.219 48.3493 186.646 48.776C187.67 49.8 188.31 51.08 188.566 52.616C188.907 54.152 189.078 55.7307 189.078 57.352C189.078 59.7413 188.822 62.4293 188.31 65.416C187.883 68.4027 187.243 71.304 186.39 74.12C185.537 76.8507 184.47 79.1973 183.19 81.16L182.934 81.544C183.446 81.2027 183.873 80.904 184.214 80.648C184.641 80.3067 184.939 80.0507 185.11 79.88C187.67 77.32 189.889 74.4613 191.766 71.304C193.643 68.0613 195.393 64.776 197.014 61.448C198.635 58.0347 200.299 54.8347 202.006 51.848C203.713 48.8613 205.675 46.3013 207.894 44.168C209.174 42.888 210.838 42.248 212.886 42.248C213.995 42.248 215.105 42.5893 216.214 43.272C217.323 43.8693 218.134 44.808 218.646 46.088C218.817 46.4293 218.731 46.6427 218.39 46.728C218.134 46.8133 217.921 46.6853 217.75 46.344C217.238 45.064 216.427 44.424 215.318 44.424C214.209 44.424 212.758 45.2347 210.966 46.856C207.894 49.8427 205.121 53.3413 202.646 57.352C200.171 61.2773 197.654 65.288 195.094 69.384C192.619 73.3947 189.718 77.064 186.39 80.392C185.025 81.7573 183.233 82.8667 181.014 83.72C178.795 84.5733 176.833 85 175.126 85ZM235.919 45.832C234.724 45.832 233.828 45.448 233.231 44.68C232.634 43.912 232.335 43.1013 232.335 42.248C232.335 40.5413 233.146 38.8773 234.767 37.256C236.388 35.5493 238.095 34.696 239.887 34.696C241.082 34.696 241.978 35.08 242.575 35.848C243.172 36.616 243.471 37.4267 243.471 38.28C243.471 40.072 242.66 41.7787 241.039 43.4C239.503 45.0213 237.796 45.832 235.919 45.832ZM216.335 85.128C212.836 85.128 210.447 84.4027 209.167 82.952C207.972 81.416 207.375 79.7093 207.375 77.832C207.375 76.296 207.631 74.8453 208.143 73.48C208.655 72.0293 209.082 71.0053 209.423 70.408C209.935 69.5547 210.618 68.5733 211.471 67.464C212.41 66.3547 213.434 65.16 214.543 63.88C212.836 65.3307 211.215 66.7387 209.679 68.104C208.228 69.4693 207.034 70.4933 206.095 71.176C205.839 71.432 205.583 71.56 205.327 71.56C204.986 71.56 204.815 71.3467 204.815 70.92C204.815 70.2373 205.284 69.5547 206.223 68.872C208.442 66.9947 210.575 64.9467 212.623 62.728C214.756 60.5093 216.762 58.4613 218.639 56.584C220.516 54.6213 222.18 53.256 223.631 52.488C225.167 51.6347 226.404 51.08 227.343 50.824C228.282 50.568 229.05 50.44 229.647 50.44C230.586 50.44 231.268 50.6107 231.695 50.952C232.122 51.208 232.207 51.5067 231.951 51.848C230.5 53.2987 229.05 55.176 227.599 57.48C226.234 59.6987 224.954 62.0453 223.759 64.52C222.564 66.9947 221.583 69.3413 220.815 71.56C220.132 73.7787 219.791 75.656 219.791 77.192C219.791 79.3253 220.644 80.392 222.351 80.392C223.972 80.392 226.063 79.6667 228.623 78.216C231.268 76.68 233.999 74.76 236.815 72.456C239.716 70.152 242.404 67.8907 244.879 65.672C245.22 65.3307 245.519 65.16 245.775 65.16C246.202 65.16 246.415 65.3733 246.415 65.8C246.5 66.2267 246.415 66.5253 246.159 66.696C243.343 69.3413 240.143 72.1147 236.559 75.016C233.06 77.832 229.519 80.2213 225.935 82.184C222.436 84.1467 219.236 85.128 216.335 85.128ZM274.625 91.656C267.03 91.656 260.289 90.7173 254.401 88.84C248.513 87.048 244.545 84.1467 242.497 80.136C242.07 79.2827 241.857 78.728 241.857 78.472C241.857 78.3013 241.942 78.216 242.113 78.216C242.454 78.216 243.052 78.5147 243.905 79.112C247.148 81.3307 251.286 82.7813 256.321 83.464C261.356 84.1467 266.39 84.488 271.425 84.488C276.289 84.488 281.537 84.0613 287.169 83.208C292.886 82.3547 298.604 81.1173 304.321 79.496C310.124 77.7893 315.756 75.656 321.217 73.096C326.678 70.536 331.67 67.5493 336.193 64.136C343.276 58.76 348.438 53.5547 351.681 48.52C354.924 43.4853 356.545 38.7493 356.545 34.312C356.545 29.448 354.753 25.1387 351.169 21.384C347.585 17.6293 342.593 14.728 336.193 12.68C329.878 10.5467 322.454 9.47999 313.921 9.47999C310.849 9.47999 307.692 9.60799 304.449 9.86399C298.988 10.376 293.526 11.3147 288.065 12.68C282.689 13.96 277.526 15.5813 272.577 17.544C267.713 19.5067 263.361 21.64 259.521 23.944C255.681 26.248 252.652 28.6373 250.433 31.112C248.3 33.5013 247.233 35.848 247.233 38.152C247.233 39.6027 247.745 41.0533 248.769 42.504C249.025 42.76 249.153 43.1013 249.153 43.528C249.153 43.8693 249.025 44.1253 248.769 44.296C248.513 44.3813 248.172 44.2533 247.745 43.912C246.977 43.0587 246.252 41.736 245.569 39.944C244.886 38.0667 244.545 35.976 244.545 33.672C244.545 31.368 245.057 28.9787 246.081 26.504C247.19 23.944 249.11 21.5973 251.841 19.464C255.084 16.904 259.094 14.5147 263.873 12.296C268.652 9.99199 273.857 7.98665 279.489 6.27999C285.206 4.57332 291.052 3.25065 297.025 2.31199C303.084 1.37332 309.057 0.903992 314.945 0.903992C325.1 0.903992 333.42 2.43999 339.905 5.51198C346.476 8.49865 351.34 12.5093 354.497 17.544C357.654 22.4933 359.233 27.9547 359.233 33.928C359.233 39.3893 357.91 44.9787 355.265 50.696C352.705 56.4133 348.908 61.832 343.873 66.952C338.924 72.072 332.78 76.5093 325.441 80.264C320.748 82.568 315.542 84.5733 309.825 86.28C304.108 87.9867 298.22 89.3093 292.161 90.248C286.102 91.1867 280.257 91.656 274.625 91.656ZM261.697 74.376C261.1 74.376 260.801 73.7787 260.801 72.584C260.801 71.3893 261.441 69.4267 262.721 66.696C264.086 63.9653 265.878 60.808 268.097 57.224C270.316 53.64 272.748 49.8853 275.393 45.96C278.124 41.9493 280.854 38.0667 283.585 34.312C286.316 30.472 288.876 27.016 291.265 23.944C293.654 20.7867 295.66 18.312 297.281 16.52C298.988 14.6427 300.054 13.704 300.481 13.704H301.633C302.572 13.704 303.041 13.9173 303.041 14.344C303.041 14.7707 302.7 15.3253 302.017 16.008C299.116 19.1653 296.044 22.7493 292.801 26.76C289.644 30.7707 286.486 34.9947 283.329 39.432C280.172 43.784 277.185 48.0933 274.369 52.36C271.638 56.6267 269.249 60.5947 267.201 64.264C265.153 67.9333 263.66 71.0053 262.721 73.48C262.465 74.0773 262.124 74.376 261.697 74.376ZM379.044 45.832C377.849 45.832 376.953 45.448 376.356 44.68C375.759 43.912 375.46 43.1013 375.46 42.248C375.46 40.5413 376.271 38.8773 377.892 37.256C379.513 35.5493 381.22 34.696 383.012 34.696C384.207 34.696 385.103 35.08 385.7 35.848C386.297 36.616 386.596 37.4267 386.596 38.28C386.596 40.072 385.785 41.7787 384.164 43.4C382.628 45.0213 380.921 45.832 379.044 45.832ZM359.46 85.128C355.961 85.128 353.572 84.4027 352.292 82.952C351.097 81.416 350.5 79.7093 350.5 77.832C350.5 76.296 350.756 74.8453 351.268 73.48C351.78 72.0293 352.207 71.0053 352.548 70.408C353.06 69.5547 353.743 68.5733 354.596 67.464C355.535 66.3547 356.559 65.16 357.668 63.88C355.961 65.3307 354.34 66.7387 352.804 68.104C351.353 69.4693 350.159 70.4933 349.22 71.176C348.964 71.432 348.708 71.56 348.452 71.56C348.111 71.56 347.94 71.3467 347.94 70.92C347.94 70.2373 348.409 69.5547 349.348 68.872C351.567 66.9947 353.7 64.9467 355.748 62.728C357.881 60.5093 359.887 58.4613 361.764 56.584C363.641 54.6213 365.305 53.256 366.756 52.488C368.292 51.6347 369.529 51.08 370.468 50.824C371.407 50.568 372.175 50.44 372.772 50.44C373.711 50.44 374.393 50.6107 374.82 50.952C375.247 51.208 375.332 51.5067 375.076 51.848C373.625 53.2987 372.175 55.176 370.724 57.48C369.359 59.6987 368.079 62.0453 366.884 64.52C365.689 66.9947 364.708 69.3413 363.94 71.56C363.257 73.7787 362.916 75.656 362.916 77.192C362.916 79.3253 363.769 80.392 365.476 80.392C367.097 80.392 369.188 79.6667 371.748 78.216C374.393 76.68 377.124 74.76 379.94 72.456C382.841 70.152 385.529 67.8907 388.004 65.672C388.345 65.3307 388.644 65.16 388.9 65.16C389.327 65.16 389.54 65.3733 389.54 65.8C389.625 66.2267 389.54 66.5253 389.284 66.696C386.468 69.3413 383.268 72.1147 379.684 75.016C376.185 77.832 372.644 80.2213 369.06 82.184C365.561 84.1467 362.361 85.128 359.46 85.128Z" fill="black"/>
</mask>
<g mask="url(#mask0_46_2)">
<path d="M12.776 88.84L13.0798 87.8872L13.0672 87.8833L12.776 88.84ZM0.871995 80.136L-0.0224647 80.5832L-0.0186107 80.5908L0.871995 80.136ZM2.27999 79.112L1.7065 79.9313L1.71531 79.9373L2.27999 79.112ZM45.544 83.208L45.3964 82.219L45.3942 82.2193L45.544 83.208ZM62.696 79.496L62.9688 80.4581L62.9782 80.4554L62.696 79.496ZM94.568 64.136L95.1704 64.9342L95.1726 64.9325L94.568 64.136ZM94.568 12.68L94.2479 13.6274L94.2556 13.63L94.2632 13.6324L94.568 12.68ZM62.824 9.86399L62.7453 8.86709L62.738 8.86767L62.7307 8.86835L62.824 9.86399ZM46.44 12.68L46.6716 13.6529L46.6825 13.6501L46.44 12.68ZM30.952 17.544L30.5834 16.6144L30.5778 16.6166L30.952 17.544ZM8.80799 31.112L8.06342 30.4444L8.06205 30.446L8.80799 31.112ZM7.14399 42.504L6.32702 43.0807L6.37637 43.1506L6.43688 43.2111L7.14399 42.504ZM7.14399 44.296L7.46022 45.2447L7.58727 45.2023L7.69869 45.128L7.14399 44.296ZM6.11999 43.912L5.3767 44.581L5.43142 44.6418L5.49529 44.6929L6.11999 43.912ZM3.94399 39.944L3.0042 40.2857L3.0068 40.2929L3.0095 40.3L3.94399 39.944ZM4.45599 26.504L3.53843 26.1064L3.53514 26.114L3.53197 26.1216L4.45599 26.504ZM10.216 19.464L10.8317 20.252L10.8356 20.2489L10.216 19.464ZM22.248 12.296L22.6691 13.203L22.6757 13.1999L22.6823 13.1968L22.248 12.296ZM37.864 6.27999L37.578 5.32176L37.574 5.32296L37.864 6.27999ZM55.4 2.31199L55.2469 1.32377L55.2448 1.32411L55.4 2.31199ZM98.28 5.51198L97.8519 6.41572L97.859 6.41909L97.8662 6.42235L98.28 5.51198ZM112.872 17.544L112.025 18.0753L112.029 18.0818L112.872 17.544ZM113.64 50.696L112.732 50.276L112.727 50.2873L113.64 50.696ZM102.248 66.952L101.535 66.2508L101.529 66.257L102.248 66.952ZM83.816 80.264L84.2567 81.1617L84.2641 81.158L84.2715 81.1542L83.816 80.264ZM21.096 66.696L20.2016 66.2488L20.1959 66.2601L20.1905 66.2716L21.096 66.696ZM33.768 45.96L32.9414 45.3972L32.9387 45.4011L33.768 45.96ZM41.96 34.312L42.7688 34.9002L42.775 34.8915L41.96 34.312ZM49.64 23.944L50.4294 24.558L50.4374 24.5474L49.64 23.944ZM55.656 16.52L54.9161 15.8473L54.9145 15.8491L55.656 16.52ZM60.392 16.008L59.6849 15.3009L59.67 15.3158L59.6557 15.3314L60.392 16.008ZM51.176 26.76L50.3983 26.1312L50.3903 26.1414L51.176 26.76ZM41.704 39.432L42.5135 40.0193L42.5188 40.0118L41.704 39.432ZM32.744 52.36L31.9093 51.8091L31.9017 51.8209L32.744 52.36ZM21.096 73.48L22.0151 73.8739L22.0235 73.8545L22.031 73.8347L21.096 73.48ZM33 90.656C25.4858 90.656 18.8501 89.727 13.0798 87.8872L12.4722 89.7927C18.4779 91.7076 25.3249 92.656 33 92.656V90.656ZM13.0672 87.8833C7.34076 86.1405 3.64726 83.372 1.7626 79.6812L-0.0186107 80.5908C2.19272 84.9213 6.43522 87.9555 12.4848 89.7967L13.0672 87.8833ZM1.76642 79.6888C1.55999 79.2759 1.41571 78.956 1.32534 78.721C1.2802 78.6037 1.25346 78.5202 1.23906 78.4655C1.22227 78.4017 1.23199 78.4132 1.23199 78.472H-0.768005C-0.768005 78.8028 -0.649089 79.1589 -0.541351 79.439C-0.418387 79.7587 -0.242708 80.1427 -0.0224647 80.5832L1.76642 79.6888ZM1.23199 78.472C1.23199 78.5408 1.21411 78.7761 1.0031 78.9871C0.792089 79.1981 0.556806 79.216 0.487995 79.216V77.216C0.248517 77.216 -0.114765 77.2765 -0.411112 77.5729C-0.707458 77.8692 -0.768005 78.2325 -0.768005 78.472H1.23199ZM0.487995 79.216C0.415938 79.216 0.47658 79.2003 0.744781 79.3344C0.982423 79.4532 1.30044 79.6471 1.7065 79.9313L2.85345 78.2928C2.40617 77.9797 1.9989 77.7254 1.6392 77.5456C1.31007 77.381 0.901385 77.216 0.487995 77.216V79.216ZM1.71531 79.9373C5.1186 82.2659 9.41631 83.7573 14.5616 84.4549L14.8304 82.4731C9.90634 81.8054 5.92671 80.3955 2.84467 78.2867L1.71531 79.9373ZM14.5616 84.4549C19.6404 85.1436 24.72 85.488 29.8 85.488V83.488C24.8107 83.488 19.8209 83.1498 14.8304 82.4731L14.5616 84.4549ZM29.8 85.488C34.7218 85.488 40.0204 85.0563 45.6938 84.1967L45.3942 82.2193C39.8036 83.0663 34.6062 83.488 29.8 83.488V85.488ZM45.6916 84.197C51.4524 83.3372 57.2115 82.0907 62.9688 80.4581L62.4232 78.5339C56.7458 80.1439 51.0703 81.3721 45.3964 82.219L45.6916 84.197ZM62.9782 80.4554C68.8294 78.7344 74.509 76.5831 80.0164 74.0015L79.1676 72.1905C73.7523 74.7289 68.1679 76.8443 62.4138 78.5366L62.9782 80.4554ZM80.0164 74.0015C85.5366 71.4139 90.5889 68.392 95.1704 64.9342L93.9656 63.3378C89.5018 66.7067 84.57 69.6581 79.1676 72.1905L80.0164 74.0015ZM95.1726 64.9325C102.308 59.5169 107.568 54.2296 110.897 49.0615L109.215 47.9785C106.059 52.8797 100.994 58.0031 93.9634 63.3395L95.1726 64.9325ZM110.897 49.0615C114.208 43.9202 115.92 38.9976 115.92 34.312H113.92C113.92 38.501 112.389 43.0504 109.215 47.9785L110.897 49.0615ZM115.92 34.312C115.92 29.1724 114.016 24.6205 110.267 20.6935L108.821 22.0745C112.24 25.6569 113.92 29.7236 113.92 34.312H115.92ZM110.267 20.6935C106.539 16.7875 101.386 13.8119 94.8728 11.7276L94.2632 13.6324C100.55 15.6441 105.381 18.4712 108.821 22.0745L110.267 20.6935ZM94.8881 11.7326C88.446 9.55622 80.9092 8.47999 72.296 8.47999V10.48C80.7495 10.48 88.0606 11.5371 94.2479 13.6274L94.8881 11.7326ZM72.296 8.47999C69.1963 8.47999 66.0126 8.60914 62.7453 8.86709L62.9027 10.8609C66.1207 10.6068 69.2518 10.48 72.296 10.48V8.47999ZM62.7307 8.86835C57.2177 9.38519 51.7065 10.3326 46.1975 11.7099L46.6825 13.6501C52.0961 12.2967 57.5076 11.3668 62.9173 10.8596L62.7307 8.86835ZM46.2084 11.7072C40.7875 12.9979 35.5789 14.6334 30.5834 16.6144L31.3206 18.4736C36.2237 16.5292 41.3405 14.9222 46.6716 13.6529L46.2084 11.7072ZM30.5778 16.6166C25.6733 18.5957 21.2732 20.7515 17.3815 23.0865L18.4105 24.8015C22.1988 22.5285 26.5027 20.4177 31.3262 18.4713L30.5778 16.6166ZM17.3815 23.0865C13.4835 25.4253 10.3675 27.8745 8.06342 30.4444L9.55256 31.7795C11.6859 29.4001 14.6285 27.0707 18.4105 24.8015L17.3815 23.0865ZM8.06205 30.446C5.82899 32.947 4.60799 35.5209 4.60799 38.152H6.60799C6.60799 36.1751 7.52032 34.0557 9.55393 31.778L8.06205 30.446ZM4.60799 38.152C4.60799 39.8516 5.21101 41.4997 6.32702 43.0807L7.96096 41.9273C7.02898 40.607 6.60799 39.3537 6.60799 38.152H4.60799ZM6.43688 43.2111C6.47215 43.2464 6.52799 43.3156 6.52799 43.528H8.52799C8.52799 42.8871 8.32783 42.2736 7.8511 41.7969L6.43688 43.2111ZM6.52799 43.528C6.52799 43.5731 6.51999 43.5639 6.53756 43.5288C6.54586 43.5122 6.55675 43.4963 6.5687 43.483C6.58037 43.4701 6.58883 43.4643 6.58929 43.4639L7.69869 45.128C8.26689 44.7492 8.52799 44.1606 8.52799 43.528H6.52799ZM6.82776 43.3473C6.98259 43.2957 7.07841 43.3394 7.04711 43.3277C7.03292 43.3223 6.99943 43.3077 6.94544 43.2747C6.89197 43.242 6.82518 43.1955 6.74469 43.1311L5.49529 44.6929C5.75418 44.9 6.0392 45.0857 6.34487 45.2003C6.6549 45.3166 7.04939 45.3816 7.46022 45.2447L6.82776 43.3473ZM6.86329 43.243C6.21488 42.5226 5.54267 41.3315 4.87848 39.588L3.0095 40.3C3.71064 42.1405 4.4891 43.5947 5.3767 44.581L6.86329 43.243ZM4.88378 39.6023C4.24655 37.8499 3.91999 35.877 3.91999 33.672H1.91999C1.91999 36.075 2.2761 38.2835 3.0042 40.2857L4.88378 39.6023ZM3.91999 33.672C3.91999 31.5187 4.39812 29.2592 5.38001 26.8863L3.53197 26.1216C2.46586 28.6981 1.91999 31.2173 1.91999 33.672H3.91999ZM5.37355 26.9016C6.40222 24.5277 8.20135 22.307 10.8317 20.252L9.60035 18.676C6.7694 20.8876 4.72843 23.3603 3.53843 26.1064L5.37355 26.9016ZM10.8356 20.2489C14.0031 17.7483 17.9428 15.3973 22.6691 13.203L21.8269 11.389C16.9958 13.632 12.9143 16.0597 9.59635 18.6791L10.8356 20.2489ZM22.6823 13.1968C27.4097 10.9175 32.5662 8.93029 38.154 7.23701L37.574 5.32296C31.8978 7.04302 26.6437 9.06649 21.8137 11.3952L22.6823 13.1968ZM38.15 7.23821C43.8239 5.54451 49.6255 4.23167 55.5552 3.29986L55.2448 1.32411C49.2278 2.26963 43.3388 3.60212 37.578 5.32176L38.15 7.23821ZM55.5531 3.3002C61.5632 2.36906 67.4853 1.90399 73.32 1.90399V-0.0960083C67.3787 -0.0960083 61.3541 0.377577 55.2469 1.32377L55.5531 3.3002ZM73.32 1.90399C83.3839 1.90399 91.544 3.42776 97.8519 6.41572L98.7081 4.60825C92.0453 1.45221 83.5654 -0.0960083 73.32 -0.0960083V1.90399ZM97.8662 6.42235C104.297 9.34546 108.992 13.2394 112.025 18.0753L113.719 17.0127C110.437 11.7793 105.404 7.65184 98.6938 4.60162L97.8662 6.42235ZM112.029 18.0818C115.082 22.8675 116.608 28.1417 116.608 33.928H118.608C118.608 27.7676 116.977 22.1191 113.715 17.0062L112.029 18.0818ZM116.608 33.928C116.608 39.2237 115.326 44.6701 112.732 50.276L114.548 51.1159C117.244 45.2871 118.608 39.555 118.608 33.928H116.608ZM112.727 50.2873C110.223 55.8814 106.498 61.2033 101.535 66.2508L102.961 67.6531C108.067 62.4605 111.938 56.9452 114.553 51.1047L112.727 50.2873ZM101.529 66.257C96.6672 71.2865 90.6164 75.6615 83.3605 79.3738L84.2715 81.1542C91.693 77.3572 97.9302 72.8575 102.967 67.647L101.529 66.257ZM83.3753 79.3663C78.7382 81.6428 73.5854 83.6288 67.914 85.3218L68.486 87.2382C74.2492 85.5179 79.5072 83.4932 84.2567 81.1617L83.3753 79.3663ZM67.914 85.3218C62.2414 87.0151 56.3979 88.3279 50.3829 89.2598L50.6891 91.2362C56.7915 90.2908 62.7239 88.9582 68.486 87.2382L67.914 85.3218ZM50.3829 89.2598C44.3705 90.1913 38.5765 90.656 33 90.656V92.656C38.6875 92.656 44.5842 92.182 50.6891 91.2362L50.3829 89.2598ZM20.072 73.376C20.0977 73.376 20.1647 73.3853 20.2347 73.4319C20.2984 73.4744 20.3098 73.5115 20.2944 73.4808C20.2771 73.4462 20.2448 73.3621 20.2184 73.2036C20.1924 73.0478 20.176 72.8437 20.176 72.584H18.176C18.176 73.2324 18.2518 73.8676 18.5056 74.3752C18.6396 74.6432 18.8376 74.9042 19.1253 75.096C19.4193 75.292 19.7477 75.376 20.072 75.376V73.376ZM20.176 72.584C20.176 72.1415 20.2993 71.4689 20.6067 70.526C20.9097 69.597 21.3717 68.4639 22.0015 67.1204L20.1905 66.2716C19.5403 67.6588 19.0423 68.8723 18.7053 69.906C18.3727 70.9258 18.176 71.8318 18.176 72.584H20.176ZM21.9904 67.1432C23.3383 64.4475 25.114 61.3175 27.3223 57.7504L25.6217 56.6976C23.3927 60.2985 21.5844 63.4831 20.2016 66.2488L21.9904 67.1432ZM27.3223 57.7504C29.5334 54.1786 31.9583 50.4348 34.5973 46.5189L32.9387 45.4011C30.2871 49.3359 27.848 53.1014 25.6217 56.6976L27.3223 57.7504ZM34.5946 46.5228C37.3197 42.5203 40.0445 38.6461 42.7688 34.9002L41.1513 33.7238C38.4142 37.4872 35.6776 41.3784 32.9414 45.3972L34.5946 46.5228ZM42.775 34.8915C45.499 31.0608 48.0504 27.6167 50.4294 24.558L48.8507 23.3301C46.4509 26.4154 43.8823 29.8831 41.145 33.7325L42.775 34.8915ZM50.4374 24.5474C52.8187 21.4007 54.8042 18.952 56.3975 17.1909L54.9145 15.8491C53.2652 17.672 51.24 20.1726 48.8426 23.3406L50.4374 24.5474ZM56.3959 17.1927C57.2404 16.2638 57.9047 15.5916 58.3966 15.1587C58.6442 14.9408 58.8256 14.8037 58.9482 14.7266C59.113 14.6231 59.052 14.704 58.856 14.704V12.704C58.4466 12.704 58.0924 12.9023 57.8838 13.0334C57.633 13.191 57.3611 13.4058 57.0754 13.6573C56.5006 14.163 55.7783 14.8989 54.9161 15.8473L56.3959 17.1927ZM58.856 14.704H60.008V12.704H58.856V14.704ZM60.008 14.704C60.2073 14.704 60.3605 14.7155 60.4742 14.7327C60.591 14.7504 60.6419 14.7706 60.6502 14.7744C60.6569 14.7774 60.5902 14.7489 60.5216 14.6554C60.4448 14.5507 60.416 14.4331 60.416 14.344H62.416C62.416 14.0416 62.3285 13.7373 62.1344 13.4726C61.9485 13.2191 61.7058 13.0572 61.4778 12.9536C61.0464 12.7575 60.5218 12.704 60.008 12.704V14.704ZM60.416 14.344C60.416 14.2992 60.4292 14.3595 60.3083 14.5559C60.193 14.7433 59.9948 14.991 59.6849 15.3009L61.0991 16.7151C61.4718 16.3424 61.7856 15.9714 62.0117 15.6041C62.2321 15.2459 62.416 14.8155 62.416 14.344H60.416ZM59.6557 15.3314C56.7376 18.507 53.6516 22.1073 50.3983 26.1312L51.9536 27.3887C55.1856 23.3913 58.2438 19.8237 61.1283 16.6846L59.6557 15.3314ZM50.3903 26.1414C47.2223 30.1656 44.0553 34.4026 40.8892 38.8522L42.5188 40.0118C45.6674 35.5867 48.815 31.3757 51.9617 27.3786L50.3903 26.1414ZM40.8946 38.8448C37.729 43.2081 34.7338 47.5295 31.9093 51.8091L33.5786 52.9108C36.3861 48.6571 39.3644 44.36 42.5135 40.0193L40.8946 38.8448ZM31.9017 51.8209C29.1624 56.1012 26.7623 60.0866 24.7028 63.7766L26.4492 64.7514C28.4857 61.1027 30.8643 57.1521 33.5863 52.8991L31.9017 51.8209ZM24.7028 63.7766C22.6431 67.467 21.124 70.5865 20.161 73.1253L22.031 73.8347C22.9453 71.4241 24.4129 68.3997 26.4492 64.7514L24.7028 63.7766ZM20.1769 73.0861C20.0841 73.3025 20.0097 73.3818 19.9895 73.3994C19.9829 73.4052 19.9908 73.3968 20.0136 73.388C20.0372 73.3788 20.0592 73.376 20.072 73.376V75.376C21.0927 75.376 21.6956 74.6196 22.0151 73.8739L20.1769 73.0861ZM109.771 82.696L109.009 83.3436L109.017 83.3533L109.026 83.3628L109.771 82.696ZM109.515 67.976L108.606 67.5602L108.601 67.5711L108.596 67.5821L109.515 67.976ZM115.915 58.888L116.642 59.5747L116.651 59.5655L115.915 58.888ZM127.051 51.08L127.456 51.9945L127.463 51.9913L127.47 51.988L127.051 51.08ZM148.043 50.184L147.51 51.0302L147.522 51.0374L147.533 51.0443L148.043 50.184ZM152.651 55.432L151.71 55.7707L151.948 56.432H152.651V55.432ZM156.107 56.2L155.756 57.1363L155.765 57.1397L155.774 57.143L156.107 56.2ZM156.875 62.216L156.089 61.5982L156.072 61.6199L156.056 61.6425L156.875 62.216ZM153.675 66.056L152.932 65.387L152.922 65.3976L152.913 65.4084L153.675 66.056ZM149.579 71.56L150.411 72.1147L150.417 72.1063L149.579 71.56ZM147.147 75.912L148.053 76.3349L148.058 76.3239L148.063 76.3128L147.147 75.912ZM154.699 78.728L155.187 79.601L155.193 79.5977L154.699 78.728ZM170.571 67.08L169.946 66.2991L169.936 66.307L169.927 66.3151L170.571 67.08ZM171.339 68.616L172.003 69.3634L172.025 69.3439L172.046 69.3231L171.339 68.616ZM159.179 78.344L158.602 77.527L158.591 77.5353L159.179 78.344ZM150.859 83.336L151.26 84.2522L151.272 84.247L151.283 84.2415L150.859 83.336ZM147.019 84.744L147.244 85.7184L147.269 85.7126L147.294 85.7055L147.019 84.744ZM138.699 83.208L137.946 83.8665L137.957 83.8786L137.968 83.8903L138.699 83.208ZM138.187 72.456L137.262 72.0752L137.254 72.0946L137.247 72.1143L138.187 72.456ZM139.083 70.28L140.008 70.6607L138.307 69.6494L139.083 70.28ZM132.427 77.192L133.055 77.9699L133.064 77.9628L133.073 77.9554L132.427 77.192ZM125.771 81.928L126.28 82.7889L126.287 82.7844L126.295 82.7797L125.771 81.928ZM120.395 84.36L120.108 83.4022L120.101 83.4042L120.094 83.4064L120.395 84.36ZM126.539 79.112L127.064 79.9628L127.073 79.9573L127.082 79.9516L126.539 79.112ZM139.467 67.848L140.151 68.5775L140.152 68.5762L139.467 67.848ZM144.075 63.368L144.782 64.0751L144.791 64.066L144.8 64.0567L144.075 63.368ZM148.171 58.376L147.352 57.8025L147.346 57.8113L148.171 58.376ZM136.779 54.664L137.261 55.5402L137.268 55.5361L136.779 54.664ZM126.923 63.112L127.687 63.7572L127.688 63.7556L126.923 63.112ZM119.755 73.096L118.877 72.6171L118.872 72.6268L119.755 73.096ZM115.915 84.128C113.488 84.128 111.737 83.3934 110.516 82.0292L109.026 83.3628C110.706 85.2412 113.052 86.128 115.915 86.128V84.128ZM110.533 82.0484C109.263 80.5541 108.595 78.6212 108.595 76.168H106.595C106.595 79.0055 107.378 81.4245 109.009 83.3436L110.533 82.0484ZM108.595 76.168C108.595 73.864 109.192 71.2692 110.434 68.3699L108.596 67.5821C107.278 70.6561 106.595 73.5227 106.595 76.168H108.595ZM110.424 68.3918C111.733 65.5287 113.795 62.5887 116.642 59.5747L115.188 58.2014C112.232 61.3314 110.027 64.45 108.606 67.5602L110.424 68.3918ZM116.651 59.5655C119.535 56.4334 123.131 53.9073 127.456 51.9945L126.646 50.1655C122.096 52.178 118.268 54.8572 115.179 58.2105L116.651 59.5655ZM127.47 51.988C131.804 49.9876 135.885 49.008 139.723 49.008V47.008C135.54 47.008 131.173 48.0764 126.632 50.172L127.47 51.988ZM139.723 49.008C142.814 49.008 145.394 49.6978 147.51 51.0302L148.576 49.3378C146.084 47.7689 143.118 47.008 139.723 47.008V49.008ZM147.533 51.0443C149.675 52.3136 151.035 53.8942 151.71 55.7707L153.592 55.0933C152.731 52.7031 151.019 50.7851 148.553 49.3237L147.533 51.0443ZM152.651 56.432C153.422 56.432 154.448 56.6457 155.756 57.1363L156.458 55.2637C155.036 54.7303 153.757 54.432 152.651 54.432V56.432ZM155.774 57.143C156.371 57.3537 156.733 57.6216 156.948 57.8994C157.155 58.1679 157.283 58.5197 157.283 59.016H159.283C159.283 58.147 159.048 57.3468 158.53 56.6766C158.02 56.0157 157.294 55.5583 156.44 55.257L155.774 57.143ZM157.283 59.016C157.283 59.6293 156.968 60.4787 156.089 61.5982L157.661 62.8338C158.659 61.564 159.283 60.2801 159.283 59.016H157.283ZM156.056 61.6425C155.496 62.4421 154.465 63.6835 152.932 65.387L154.418 66.725C155.957 65.0151 157.059 63.6966 157.694 62.7895L156.056 61.6425ZM152.913 65.4084C151.434 67.1486 150.043 69.0173 148.741 71.0137L150.417 72.1063C151.675 70.1773 153.015 68.3767 154.437 66.7036L152.913 65.4084ZM148.747 71.0053C147.698 72.579 146.856 74.0813 146.231 75.5112L148.063 76.3128C148.632 75.012 149.412 73.613 150.411 72.1147L148.747 71.0053ZM146.241 75.4891C145.61 76.8407 145.251 78.1004 145.251 79.24H147.251C147.251 78.5023 147.489 77.5433 148.053 76.3349L146.241 75.4891ZM145.251 79.24C145.251 80.0341 145.45 80.8134 146.024 81.3871C146.598 81.9608 147.377 82.16 148.171 82.16V80.16C147.685 80.16 147.504 80.0392 147.438 79.9729C147.372 79.9066 147.251 79.7259 147.251 79.24H145.251ZM148.171 82.16C149.905 82.16 152.283 81.224 155.187 79.601L154.211 77.8551C151.313 79.4748 149.338 80.16 148.171 80.16V82.16ZM155.193 79.5977C158.396 77.7797 161.468 75.7026 164.409 73.3671L163.165 71.8009C160.303 74.0734 157.317 76.0923 154.205 77.8583L155.193 79.5977ZM164.409 73.3671C167.313 71.0608 169.583 69.2193 171.215 67.8449L169.927 66.3151C168.316 67.6713 166.064 69.4992 163.165 71.8009L164.409 73.3671ZM171.196 67.8609C171.389 67.7061 171.525 67.6134 171.611 67.5642C171.653 67.5401 171.667 67.536 171.657 67.5398C171.652 67.5415 171.581 67.568 171.467 67.568V65.568C171.105 65.568 170.795 65.7273 170.619 65.8278C170.406 65.9493 170.18 66.1125 169.946 66.2991L171.196 67.8609ZM171.467 67.568C171.45 67.568 171.389 67.5654 171.306 67.5311C171.218 67.4942 171.134 67.4326 171.07 67.3527C170.953 67.2067 170.979 67.1015 170.979 67.208H172.979C172.979 66.8878 172.919 66.4626 172.632 66.1033C172.31 65.7014 171.858 65.568 171.467 65.568V67.568ZM170.979 67.208C170.979 67.4078 170.907 67.6337 170.632 67.9089L172.046 69.3231C172.624 68.7449 172.979 68.0322 172.979 67.208H170.979ZM170.675 67.8686C169.917 68.5419 168.433 69.8143 166.213 71.6926L167.505 73.2194C169.722 71.343 171.225 70.0554 172.003 69.3634L170.675 67.8686ZM166.213 71.6926C164.021 73.5475 161.485 75.4923 158.602 77.527L159.756 79.161C162.676 77.0997 165.26 75.1192 167.505 73.2194L166.213 71.6926ZM158.591 77.5353C155.819 79.5515 153.1 81.1813 150.435 82.4305L151.283 84.2415C154.08 82.9307 156.907 81.2325 159.767 79.1527L158.591 77.5353ZM150.458 82.4198C149.126 83.0027 147.888 83.4556 146.744 83.7825L147.294 85.7055C148.539 85.3498 149.861 84.864 151.26 84.2522L150.458 82.4198ZM146.794 83.7696C145.744 84.0121 144.796 84.128 143.947 84.128V86.128C144.975 86.128 146.076 85.9879 147.244 85.7184L146.794 83.7696ZM143.947 84.128C141.828 84.128 140.381 83.5444 139.43 82.5257L137.968 83.8903C139.406 85.4316 141.458 86.128 143.947 86.128V84.128ZM139.452 82.5495C138.444 81.3977 137.907 79.8961 137.907 77.96H135.907C135.907 80.2906 136.565 82.2877 137.946 83.8665L139.452 82.5495ZM137.907 77.96C137.907 77.207 138.02 76.3998 138.256 75.5351L136.326 75.0089C136.05 76.0215 135.907 77.0064 135.907 77.96H137.907ZM138.256 75.5351C138.504 74.6237 138.795 73.7112 139.127 72.7977L137.247 72.1143C136.897 73.0781 136.59 74.043 136.326 75.0089L138.256 75.5351ZM139.112 72.8367L140.008 70.6607L138.158 69.8992L137.262 72.0752L139.112 72.8367ZM138.307 69.6494C136.12 72.3415 133.944 74.5987 131.781 76.4286L133.073 77.9554C135.348 76.0306 137.609 73.6798 139.859 70.9106L138.307 69.6494ZM131.799 76.4141C129.61 78.1818 127.426 79.7353 125.247 81.0763L126.295 82.7797C128.553 81.39 130.807 79.7862 133.055 77.9699L131.799 76.4141ZM125.262 81.0671C123.44 82.1441 121.722 82.9179 120.108 83.4022L120.682 85.3178C122.481 84.7781 124.348 83.9306 126.28 82.7889L125.262 81.0671ZM120.094 83.4064C118.547 83.8949 117.157 84.128 115.915 84.128V86.128C117.404 86.128 119 85.8491 120.696 85.3136L120.094 83.4064ZM119.883 82.8C121.725 82.8 124.155 81.7597 127.064 79.9628L126.014 78.2612C123.12 80.0483 121.113 80.8 119.883 80.8V82.8ZM127.082 79.9516C130.066 78.0207 133.493 75.1081 137.358 71.2431L135.944 69.8289C132.129 73.6439 128.814 76.4486 125.996 78.2724L127.082 79.9516ZM137.358 71.2431C137.857 70.7439 138.785 69.8581 140.151 68.5775L138.783 67.1185C137.418 68.3979 136.469 69.3041 135.944 69.8289L137.358 71.2431ZM140.152 68.5762C141.611 67.203 143.155 65.7025 144.782 64.0751L143.368 62.6609C141.753 64.2761 140.224 65.7623 138.782 67.1198L140.152 68.5762ZM144.8 64.0567C146.451 62.3188 147.852 60.6136 148.996 58.9407L147.346 57.8113C146.272 59.3811 144.942 61.0039 143.35 62.6792L144.8 64.0567ZM148.99 58.9495C150.214 57.201 150.963 55.58 150.963 54.152H148.963C148.963 54.9427 148.517 56.1376 147.352 57.8025L148.99 58.9495ZM150.963 54.152C150.963 52.9827 150.419 52.0447 149.406 51.4614C148.476 50.926 147.21 50.72 145.739 50.72V52.72C147.084 52.72 147.93 52.9193 148.408 53.1946C148.803 53.4219 148.963 53.6999 148.963 54.152H150.963ZM145.739 50.72C143.018 50.72 139.855 51.792 136.29 53.7919L137.268 55.5361C140.701 53.6107 143.511 52.72 145.739 52.72V50.72ZM136.297 53.7878C132.752 55.7377 129.375 58.6429 126.158 62.4684L127.688 63.7556C130.786 60.0718 133.98 57.345 137.261 55.5402L136.297 53.7878ZM126.159 62.4668C122.894 66.3329 120.458 69.7186 118.877 72.6171L120.633 73.5749C122.124 70.8414 124.466 67.5711 127.687 63.7572L126.159 62.4668ZM118.872 72.6268C117.413 75.3736 116.579 77.6528 116.579 79.368H118.579C118.579 78.1819 119.196 76.2798 120.638 73.5652L118.872 72.6268ZM116.579 79.368C116.579 80.3197 116.803 81.2194 117.429 81.8797C118.064 82.5503 118.947 82.8 119.883 82.8V80.8C119.283 80.8 119.014 80.6444 118.881 80.5043C118.739 80.354 118.579 80.0376 118.579 79.368H116.579ZM172.95 84.616L172.131 84.0425L171.466 84.9921L172.503 85.5104L172.95 84.616ZM176.278 77.832L175.348 77.4655L175.343 77.4778L175.338 77.4903L176.278 77.832ZM181.142 61.832L180.17 61.5986L180.166 61.6133L180.163 61.628L181.142 61.832ZM181.91 58.376H182.91V55.9618L181.203 57.6689L181.91 58.376ZM169.11 70.536L169.71 71.336L169.722 71.3266L169.735 71.3169L169.11 70.536ZM168.214 71.304L168.661 72.1984L168.806 72.1259L168.921 72.0111L168.214 71.304ZM167.958 69.256L168.622 70.0034L168.624 70.0019L167.958 69.256ZM175.766 62.088L175.092 61.349L175.087 61.3541L175.081 61.3592L175.766 62.088ZM182.166 53.768L183.071 54.1938L183.08 54.1734L183.089 54.1526L182.166 53.768ZM182.166 48.904L181.566 49.704L181.607 49.735L181.652 49.7615L182.166 48.904ZM184.726 47.496L184.171 48.328L184.223 48.3626L184.279 48.3904L184.726 47.496ZM188.566 52.616L187.58 52.7804L187.584 52.8068L187.59 52.8329L188.566 52.616ZM188.31 65.416L187.324 65.247L187.322 65.2608L187.32 65.2746L188.31 65.416ZM186.39 74.12L187.345 74.4183L187.347 74.41L186.39 74.12ZM183.19 81.16L184.022 81.7147L184.028 81.7063L183.19 81.16ZM182.934 81.544L182.102 80.9893L183.489 82.3761L182.934 81.544ZM184.214 80.648L184.814 81.448L184.826 81.4386L184.839 81.4289L184.214 80.648ZM191.766 71.304L192.626 71.8151L192.631 71.805L191.766 71.304ZM197.014 61.448L197.913 61.886L197.917 61.8771L197.014 61.448ZM207.894 44.168L208.587 44.8888L208.594 44.882L208.601 44.8751L207.894 44.168ZM216.214 43.272L215.69 44.1237L215.714 44.1388L215.74 44.1525L216.214 43.272ZM218.646 46.088L217.718 46.4594L217.733 46.498L217.752 46.5352L218.646 46.088ZM218.39 46.728L218.147 45.7579L218.11 45.7672L218.074 45.7793L218.39 46.728ZM217.75 46.344L216.822 46.7154L216.837 46.754L216.856 46.7912L217.75 46.344ZM210.966 46.856L210.295 46.1145L210.282 46.1265L210.269 46.139L210.966 46.856ZM202.646 57.352L203.492 57.8853L203.497 57.8771L202.646 57.352ZM195.094 69.384L194.246 68.854L194.243 68.8589L195.094 69.384ZM175.126 84C174.255 84 173.709 83.8774 173.397 83.7216L172.503 85.5104C173.215 85.8666 174.12 86 175.126 86V84ZM173.769 85.1895C175.031 83.3874 176.176 81.0393 177.218 78.1737L175.338 77.4903C174.332 80.2567 173.259 82.4312 172.131 84.0425L173.769 85.1895ZM177.208 78.1985C178.329 75.3549 179.32 72.4681 180.181 69.5382L178.263 68.9738C177.418 71.8466 176.446 74.6771 175.348 77.4655L177.208 78.1985ZM180.181 69.5382C181.039 66.6213 181.687 64.119 182.121 62.036L180.163 61.628C179.744 63.641 179.111 66.088 178.263 68.9738L180.181 69.5382ZM182.114 62.0654C182.371 60.997 182.564 60.1692 182.694 59.5849C182.759 59.2935 182.809 59.0566 182.844 58.878C182.869 58.7474 182.91 58.5361 182.91 58.376H180.91C180.91 58.3012 180.919 58.2979 180.88 58.498C180.851 58.6501 180.805 58.8665 180.742 59.1511C180.616 59.7188 180.425 60.5336 180.17 61.5986L182.114 62.0654ZM181.203 57.6689L175.827 63.0449L177.241 64.4591L182.617 59.0831L181.203 57.6689ZM175.827 63.0449C174.727 64.1452 173.54 65.2892 172.268 66.4769L173.632 67.9391C174.92 66.7374 176.123 65.5774 177.241 64.4591L175.827 63.0449ZM172.268 66.4769C171.005 67.6554 169.744 68.748 168.485 69.7551L169.735 71.3169C171.036 70.276 172.335 69.1499 173.632 67.9391L172.268 66.4769ZM168.51 69.736C168.137 70.0155 167.802 70.3022 167.507 70.5969L168.921 72.0111C169.138 71.7938 169.4 71.5685 169.71 71.336L168.51 69.736ZM167.767 70.4096C167.502 70.5421 167.361 70.56 167.318 70.56V72.56C167.787 72.56 168.244 72.4073 168.661 72.1984L167.767 70.4096ZM167.318 70.56C167.301 70.56 167.473 70.5565 167.641 70.7249C167.809 70.8932 167.806 71.0645 167.806 71.048H165.806C165.806 71.3728 165.888 71.8001 166.227 72.1391C166.566 72.4781 166.993 72.56 167.318 72.56V70.56ZM167.806 71.048C167.806 71.0028 167.878 70.6648 168.622 70.0034L167.294 68.5086C166.502 69.2126 165.806 70.0692 165.806 71.048H167.806ZM168.624 70.0019C171.021 67.862 173.63 65.4668 176.451 62.8168L175.081 61.3592C172.27 63.9998 169.674 66.3833 167.292 68.5101L168.624 70.0019ZM176.44 62.827C179.417 60.1126 181.639 57.237 183.071 54.1938L181.261 53.3422C179.963 56.1017 177.918 58.7727 175.092 61.349L176.44 62.827ZM183.089 54.1526C183.552 53.0416 183.806 51.9705 183.806 50.952H181.806C181.806 51.6402 181.633 52.4464 181.243 53.3834L183.089 54.1526ZM183.806 50.952C183.806 50.3454 183.749 49.7854 183.6 49.3097C183.452 48.8355 183.18 48.3462 182.68 48.0465L181.652 49.7615C181.579 49.7178 181.626 49.6979 181.692 49.9063C181.756 50.1132 181.806 50.4493 181.806 50.952H183.806ZM182.766 48.104C182.676 48.0369 182.654 47.9919 182.654 47.88H180.654C180.654 48.6214 180.973 49.2591 181.566 49.704L182.766 48.104ZM182.654 47.88C182.654 47.7683 182.668 47.7114 182.675 47.6922C182.679 47.6779 182.675 47.6969 182.649 47.7231C182.623 47.7493 182.604 47.7534 182.618 47.7487C182.637 47.7423 182.694 47.728 182.806 47.728V45.728C182.268 45.728 181.681 45.8632 181.235 46.3089C180.789 46.7546 180.654 47.3419 180.654 47.88H182.654ZM182.806 47.728C183.017 47.728 183.453 47.8493 184.171 48.328L185.281 46.6639C184.463 46.1187 183.619 45.728 182.806 45.728V47.728ZM184.279 48.3904C185.085 48.7936 185.619 49.1634 185.939 49.4831L187.353 48.0689C186.819 47.5353 186.074 47.0518 185.173 46.6016L184.279 48.3904ZM185.939 49.4831C186.804 50.3484 187.355 51.4336 187.58 52.7804L189.552 52.4516C189.265 50.7264 188.536 49.2516 187.353 48.0689L185.939 49.4831ZM187.59 52.8329C187.915 54.2956 188.078 55.8014 188.078 57.352H190.078C190.078 55.6599 189.9 54.0084 189.542 52.3991L187.59 52.8329ZM188.078 57.352C188.078 59.672 187.829 62.3021 187.324 65.247L189.296 65.585C189.815 62.5565 190.078 59.8106 190.078 57.352H188.078ZM187.32 65.2746C186.9 68.2122 186.271 71.0638 185.433 73.83L187.347 74.41C188.215 71.5442 188.866 68.5931 189.3 65.5574L187.32 65.2746ZM185.436 73.8217C184.604 76.4833 183.573 78.7427 182.352 80.6137L184.028 81.7063C185.367 79.6519 186.47 77.218 187.344 74.4183L185.436 73.8217ZM182.358 80.6053L182.102 80.9893L183.766 82.0987L184.022 81.7147L182.358 80.6053ZM183.489 82.3761C184.01 82.0285 184.453 81.7188 184.814 81.448L183.614 79.848C183.292 80.0892 182.882 80.3768 182.379 80.7119L183.489 82.3761ZM184.839 81.4289C185.267 81.0858 185.604 80.8002 185.817 80.5871L184.403 79.1729C184.275 79.3011 184.014 79.5275 183.589 79.8671L184.839 81.4289ZM185.817 80.5871C188.437 77.9675 190.706 75.0428 192.626 71.8151L190.906 70.7929C189.071 73.8799 186.903 76.6725 184.403 79.1729L185.817 80.5871ZM192.631 71.805C194.521 68.542 196.281 65.2356 197.913 61.886L196.115 61.01C194.504 64.3164 192.766 67.5807 190.901 70.803L192.631 71.805ZM197.917 61.8771C199.529 58.4843 201.181 55.3069 202.874 52.3441L201.138 51.3519C199.417 54.3624 197.742 57.585 196.111 61.0189L197.917 61.8771ZM202.874 52.3441C204.539 49.4307 206.445 46.9488 208.587 44.8888L207.201 43.4472C204.906 45.6539 202.886 48.2919 201.138 51.3519L202.874 52.3441ZM208.601 44.8751C209.668 43.8079 211.065 43.248 212.886 43.248V41.248C210.611 41.248 208.68 41.9681 207.187 43.4609L208.601 44.8751ZM212.886 43.248C213.78 43.248 214.71 43.5209 215.69 44.1237L216.738 42.4203C215.499 41.6578 214.211 41.248 212.886 41.248V43.248ZM215.74 44.1525C216.623 44.6279 217.284 45.3751 217.718 46.4594L219.574 45.7166C218.984 44.2409 218.024 43.1108 216.688 42.3915L215.74 44.1525ZM217.752 46.5352C217.791 46.6132 217.665 46.423 217.782 46.1326C217.842 45.982 217.94 45.8797 218.025 45.8208C218.064 45.7935 218.096 45.7776 218.116 45.769C218.127 45.7647 218.135 45.7618 218.14 45.7602C218.142 45.7593 218.144 45.7588 218.145 45.7584C218.147 45.758 218.147 45.7579 218.147 45.7579L218.633 47.6981C218.943 47.6204 219.423 47.413 219.638 46.8754C219.84 46.3717 219.672 45.9041 219.54 45.6408L217.752 46.5352ZM218.074 45.7793C218.122 45.7633 218.199 45.7473 218.297 45.7561C218.396 45.7652 218.484 45.7975 218.552 45.8385C218.674 45.9115 218.687 45.9814 218.644 45.8968L216.856 46.7912C216.984 47.0479 217.189 47.3525 217.524 47.5535C217.904 47.7815 218.328 47.8028 218.706 47.6767L218.074 45.7793ZM218.678 45.9726C218.379 45.2227 217.959 44.5779 217.378 44.1191C216.782 43.6491 216.08 43.424 215.318 43.424V45.424C215.666 45.424 215.923 45.5189 216.138 45.6889C216.368 45.8701 216.609 46.1853 216.822 46.7154L218.678 45.9726ZM215.318 43.424C214.528 43.424 213.716 43.7087 212.91 44.1591C212.097 44.6136 211.224 45.2739 210.295 46.1145L211.637 47.5975C212.5 46.8168 213.249 46.261 213.886 45.9049C214.531 45.5446 214.998 45.424 215.318 45.424V43.424ZM210.269 46.139C207.132 49.1884 204.309 52.7531 201.795 56.8269L203.497 57.8771C205.933 53.9296 208.656 50.4969 211.663 47.573L210.269 46.139ZM201.8 56.8187C199.325 60.7452 196.807 64.7569 194.246 68.854L195.942 69.914C198.501 65.8191 201.018 61.8095 203.492 57.8853L201.8 56.8187ZM194.243 68.8589C191.809 72.8036 188.956 76.4118 185.683 79.6849L187.097 81.0991C190.48 77.7162 193.43 73.9857 195.945 69.9091L194.243 68.8589ZM185.683 79.6849C184.437 80.9312 182.773 81.9722 180.655 82.7867L181.373 84.6533C183.693 83.7611 185.613 82.5835 187.097 81.0991L185.683 79.6849ZM180.655 82.7867C178.509 83.612 176.672 84 175.126 84V86C176.993 86 179.081 85.5347 181.373 84.6533L180.655 82.7867ZM234.767 37.256L235.474 37.9631L235.483 37.954L235.492 37.9447L234.767 37.256ZM241.039 43.4L240.332 42.6929L240.322 42.7024L240.313 42.7123L241.039 43.4ZM209.167 82.952L208.378 83.5659L208.397 83.5904L208.417 83.6136L209.167 82.952ZM208.143 73.48L209.079 73.8311L209.083 73.822L209.086 73.8128L208.143 73.48ZM209.423 70.408L208.566 69.8935L208.56 69.9026L208.555 69.9119L209.423 70.408ZM211.471 67.464L210.708 66.8181L210.693 66.8358L210.678 66.8543L211.471 67.464ZM214.543 63.88L215.299 64.5349L213.895 63.1181L214.543 63.88ZM209.679 68.104L209.015 67.3566L209.004 67.366L208.994 67.3758L209.679 68.104ZM206.095 71.176L205.507 70.3673L205.443 70.4134L205.388 70.4689L206.095 71.176ZM206.223 68.872L206.811 69.6807L206.841 69.6591L206.869 69.6354L206.223 68.872ZM212.623 62.728L211.902 62.0349L211.895 62.0422L211.888 62.0497L212.623 62.728ZM218.639 56.584L219.346 57.2911L219.354 57.2832L219.362 57.2752L218.639 56.584ZM223.631 52.488L224.099 53.3718L224.108 53.3671L224.117 53.3622L223.631 52.488ZM231.695 50.952L231.07 51.7329L231.123 51.7749L231.181 51.8095L231.695 50.952ZM231.951 51.848L232.658 52.5551L232.708 52.5049L232.751 52.448L231.951 51.848ZM227.599 57.48L226.753 56.9472L226.747 56.9559L227.599 57.48ZM220.815 71.56L219.87 71.2329L219.864 71.2493L219.859 71.2659L220.815 71.56ZM228.623 78.216L229.116 79.0861L229.125 79.0808L228.623 78.216ZM236.815 72.456L236.193 71.6729L236.187 71.6774L236.182 71.682L236.815 72.456ZM244.879 65.672L245.547 66.4166L245.567 66.3984L245.586 66.3791L244.879 65.672ZM246.415 65.8H245.415V65.899L245.434 65.9961L246.415 65.8ZM246.159 66.696L245.604 65.8639L245.535 65.9101L245.474 65.9672L246.159 66.696ZM236.559 75.016L237.186 75.795L237.188 75.7932L236.559 75.016ZM225.935 82.184L225.455 81.3069L225.446 81.3119L225.935 82.184ZM235.919 44.832C234.955 44.832 234.385 44.5349 234.02 44.0661L232.442 45.2939C233.272 46.3611 234.494 46.832 235.919 46.832V44.832ZM234.02 44.0661C233.539 43.4478 233.335 42.8483 233.335 42.248H231.335C231.335 43.3543 231.728 44.3762 232.442 45.2939L234.02 44.0661ZM233.335 42.248C233.335 40.8876 233.974 39.4633 235.474 37.9631L234.06 36.5489C232.317 38.2914 231.335 40.1951 231.335 42.248H233.335ZM235.492 37.9447C236.987 36.3716 238.448 35.696 239.887 35.696V33.696C237.742 33.696 235.79 34.7271 234.042 36.5672L235.492 37.9447ZM239.887 35.696C240.851 35.696 241.421 35.9931 241.786 36.4619L243.364 35.2341C242.534 34.1669 241.312 33.696 239.887 33.696V35.696ZM241.786 36.4619C242.267 37.0802 242.471 37.6797 242.471 38.28H244.471C244.471 37.1737 244.078 36.1518 243.364 35.2341L241.786 36.4619ZM242.471 38.28C242.471 39.7381 241.821 41.2042 240.332 42.6929L241.746 44.1071C243.5 42.3532 244.471 40.4059 244.471 38.28H242.471ZM240.313 42.7123C238.927 44.1752 237.47 44.832 235.919 44.832V46.832C238.123 46.832 240.079 45.8675 241.765 44.0877L240.313 42.7123ZM216.335 84.128C212.908 84.128 210.9 83.4049 209.917 82.2904L208.417 83.6136C209.994 85.4005 212.765 86.128 216.335 86.128V84.128ZM209.956 82.3381C208.893 80.9707 208.375 79.4784 208.375 77.832H206.375C206.375 79.9403 207.052 81.8613 208.378 83.5659L209.956 82.3381ZM208.375 77.832C208.375 76.4094 208.612 75.0783 209.079 73.8311L207.207 73.1289C206.65 74.6124 206.375 76.1826 206.375 77.832H208.375ZM209.086 73.8128C209.596 72.367 209.998 71.417 210.291 70.9041L208.555 69.9119C208.165 70.5937 207.714 71.6917 207.2 73.1472L209.086 73.8128ZM210.28 70.9225C210.767 70.1123 211.425 69.1638 212.264 68.0737L210.678 66.8543C209.81 67.9829 209.103 68.997 208.566 69.8935L210.28 70.9225ZM212.234 68.1099C213.17 67.0041 214.192 65.8124 215.299 64.5349L213.787 63.2251C212.676 64.5076 211.649 65.7053 210.708 66.8181L212.234 68.1099ZM213.895 63.1181C212.184 64.5731 210.557 65.9859 209.015 67.3566L210.343 68.8514C211.873 67.4914 213.489 66.0882 215.191 64.6419L213.895 63.1181ZM208.994 67.3758C207.555 68.7295 206.396 69.7207 205.507 70.3673L206.683 71.9847C207.672 71.2659 208.901 70.2091 210.364 68.8322L208.994 67.3758ZM205.388 70.4689C205.317 70.5401 205.274 70.5644 205.264 70.5696C205.26 70.5717 205.264 70.569 205.276 70.5659C205.289 70.5626 205.307 70.56 205.327 70.56V72.56C205.942 72.56 206.437 72.2481 206.802 71.8831L205.388 70.4689ZM205.327 70.56C205.344 70.56 205.405 70.5626 205.488 70.5969C205.576 70.6338 205.66 70.6954 205.724 70.7753C205.841 70.9213 205.815 71.0265 205.815 70.92H203.815C203.815 71.2402 203.875 71.6654 204.162 72.0247C204.484 72.4266 204.936 72.56 205.327 72.56V70.56ZM205.815 70.92C205.815 70.7279 205.952 70.3053 206.811 69.6807L205.635 68.0633C204.616 68.804 203.815 69.7468 203.815 70.92H205.815ZM206.869 69.6354C209.12 67.7305 211.283 65.6539 213.358 63.4063L211.888 62.0497C209.867 64.2394 207.763 66.2588 205.577 68.1086L206.869 69.6354ZM213.344 63.4211C215.473 61.2064 217.474 59.1632 219.346 57.2911L217.932 55.8769C216.049 57.7595 214.039 59.8122 211.902 62.0349L213.344 63.4211ZM219.362 57.2752C221.207 55.3463 222.785 54.0676 224.099 53.3718L223.163 51.6042C221.576 52.4444 219.826 53.8964 217.916 55.8928L219.362 57.2752ZM224.117 53.3622C225.629 52.5219 226.784 52.0131 227.606 51.7888L227.08 49.8592C226.025 50.1469 224.705 50.7474 223.145 51.6138L224.117 53.3622ZM227.606 51.7888C228.506 51.5435 229.176 51.44 229.647 51.44V49.44C228.923 49.44 228.058 49.5925 227.08 49.8592L227.606 51.7888ZM229.647 51.44C230.506 51.44 230.909 51.6041 231.07 51.7329L232.32 50.1711C231.627 49.6172 230.665 49.44 229.647 49.44V51.44ZM231.181 51.8095C231.301 51.8818 231.176 51.8482 231.117 51.6427C231.086 51.532 231.091 51.4249 231.113 51.3423C231.132 51.2686 231.159 51.2369 231.151 51.248L232.751 52.448C232.992 52.1272 233.198 51.6462 233.041 51.0933C232.896 50.5891 232.516 50.2782 232.209 50.0945L231.181 51.8095ZM231.244 51.1409C229.727 52.6582 228.231 54.5992 226.753 56.9472L228.445 58.0128C229.868 55.7528 231.274 53.9391 232.658 52.5551L231.244 51.1409ZM226.747 56.9559C225.363 59.205 224.067 61.5816 222.858 64.0852L224.66 64.9547C225.84 62.509 227.104 60.1923 228.451 58.0041L226.747 56.9559ZM222.858 64.0852C221.65 66.5892 220.653 68.972 219.87 71.2329L221.76 71.8871C222.513 69.7107 223.479 67.4002 224.66 64.9547L222.858 64.0852ZM219.859 71.2659C219.161 73.5364 218.791 75.5193 218.791 77.192H220.791C220.791 75.7927 221.104 74.0209 221.771 71.8541L219.859 71.2659ZM218.791 77.192C218.791 78.3655 219.021 79.4307 219.65 80.2167C220.313 81.0453 221.277 81.392 222.351 81.392V79.392C221.718 79.392 221.402 79.2054 221.212 78.9673C220.987 78.6866 220.791 78.1518 220.791 77.192H218.791ZM222.351 81.392C224.235 81.392 226.51 80.5628 229.116 79.0861L228.13 77.346C225.616 78.7707 223.71 79.392 222.351 79.392V81.392ZM229.125 79.0808C231.824 77.5136 234.599 75.5616 237.448 73.23L236.182 71.682C233.399 73.9584 230.712 75.8464 228.121 77.3512L229.125 79.0808ZM237.437 73.2391C240.352 70.9241 243.055 68.6499 245.547 66.4166L244.211 64.9274C241.753 67.1314 239.081 69.3799 236.193 71.6729L237.437 73.2391ZM245.586 66.3791C245.717 66.2481 245.807 66.1837 245.855 66.1562C245.903 66.1287 245.871 66.16 245.775 66.16V64.16C245.1 64.16 244.552 64.5844 244.172 64.9649L245.586 66.3791ZM245.775 66.16C245.834 66.16 245.695 66.1741 245.548 66.0271C245.401 65.8801 245.415 65.7408 245.415 65.8H247.415C247.415 65.4325 247.322 64.9732 246.962 64.6129C246.602 64.2525 246.142 64.16 245.775 64.16V66.16ZM245.434 65.9961C245.458 66.1122 245.438 66.122 245.453 66.0693C245.462 66.0393 245.479 65.9984 245.51 65.9558C245.541 65.9132 245.576 65.8829 245.604 65.8639L246.714 67.5281C247.446 67.0397 247.521 66.2329 247.396 65.6039L245.434 65.9961ZM245.474 65.9672C242.679 68.5928 239.498 71.35 235.93 74.2388L237.188 75.7932C240.788 72.8793 244.007 70.0898 246.844 67.4248L245.474 65.9672ZM235.932 74.237C232.475 77.0196 228.982 79.3752 225.455 81.3069L226.415 83.0611C230.056 81.0675 233.646 78.6444 237.186 75.795L235.932 74.237ZM225.446 81.3119C222.042 83.2212 219.012 84.128 216.335 84.128V86.128C219.461 86.128 222.831 85.0721 226.424 83.0561L225.446 81.3119ZM254.401 88.84L254.705 87.8872L254.692 87.8833L254.401 88.84ZM242.497 80.136L241.603 80.5832L241.606 80.5908L242.497 80.136ZM243.905 79.112L243.332 79.9313L243.34 79.9373L243.905 79.112ZM287.169 83.208L287.021 82.219L287.019 82.2193L287.169 83.208ZM304.321 79.496L304.594 80.4581L304.603 80.4554L304.321 79.496ZM336.193 64.136L336.795 64.9342L336.798 64.9325L336.193 64.136ZM336.193 12.68L335.873 13.6274L335.881 13.63L335.888 13.6324L336.193 12.68ZM304.449 9.86399L304.37 8.86709L304.363 8.86767L304.356 8.86835L304.449 9.86399ZM288.065 12.68L288.297 13.6529L288.308 13.6501L288.065 12.68ZM272.577 17.544L272.208 16.6144L272.203 16.6166L272.577 17.544ZM250.433 31.112L249.688 30.4444L249.687 30.446L250.433 31.112ZM248.769 42.504L247.952 43.0807L248.001 43.1506L248.062 43.2111L248.769 42.504ZM248.769 44.296L249.085 45.2447L249.212 45.2023L249.324 45.128L248.769 44.296ZM247.745 43.912L247.002 44.581L247.056 44.6418L247.12 44.6929L247.745 43.912ZM245.569 39.944L244.629 40.2857L244.632 40.2929L244.635 40.3L245.569 39.944ZM246.081 26.504L245.163 26.1064L245.16 26.114L245.157 26.1216L246.081 26.504ZM251.841 19.464L252.457 20.252L252.461 20.2489L251.841 19.464ZM263.873 12.296L264.294 13.203L264.301 13.1999L264.307 13.1968L263.873 12.296ZM279.489 6.27999L279.203 5.32176L279.199 5.32296L279.489 6.27999ZM297.025 2.31199L296.872 1.32377L296.87 1.32411L297.025 2.31199ZM339.905 5.51198L339.477 6.41572L339.484 6.41909L339.491 6.42235L339.905 5.51198ZM354.497 17.544L353.65 18.0753L353.654 18.0818L354.497 17.544ZM355.265 50.696L354.357 50.276L354.352 50.2873L355.265 50.696ZM343.873 66.952L343.16 66.2508L343.154 66.257L343.873 66.952ZM325.441 80.264L325.882 81.1617L325.889 81.158L325.896 81.1542L325.441 80.264ZM262.721 66.696L261.827 66.2488L261.821 66.2601L261.816 66.2716L262.721 66.696ZM275.393 45.96L274.566 45.3972L274.564 45.4011L275.393 45.96ZM283.585 34.312L284.394 34.9002L284.4 34.8915L283.585 34.312ZM291.265 23.944L292.054 24.558L292.062 24.5474L291.265 23.944ZM297.281 16.52L296.541 15.8473L296.539 15.8491L297.281 16.52ZM302.017 16.008L301.31 15.3009L301.295 15.3158L301.281 15.3314L302.017 16.008ZM292.801 26.76L292.023 26.1312L292.015 26.1414L292.801 26.76ZM283.329 39.432L284.138 40.0193L284.144 40.0118L283.329 39.432ZM274.369 52.36L273.534 51.8091L273.527 51.8209L274.369 52.36ZM262.721 73.48L263.64 73.8739L263.648 73.8545L263.656 73.8347L262.721 73.48ZM274.625 90.656C267.111 90.656 260.475 89.727 254.705 87.8872L254.097 89.7927C260.103 91.7076 266.95 92.656 274.625 92.656V90.656ZM254.692 87.8833C248.966 86.1405 245.272 83.372 243.388 79.6812L241.606 80.5908C243.818 84.9213 248.06 87.9555 254.11 89.7967L254.692 87.8833ZM243.391 79.6888C243.185 79.2759 243.041 78.956 242.95 78.721C242.905 78.6037 242.878 78.5202 242.864 78.4655C242.847 78.4017 242.857 78.4132 242.857 78.472H240.857C240.857 78.8028 240.976 79.1589 241.084 79.439C241.207 79.7587 241.382 80.1427 241.603 80.5832L243.391 79.6888ZM242.857 78.472C242.857 78.5408 242.839 78.7761 242.628 78.9871C242.417 79.1981 242.182 79.216 242.113 79.216V77.216C241.874 77.216 241.51 77.2765 241.214 77.5729C240.918 77.8692 240.857 78.2325 240.857 78.472H242.857ZM242.113 79.216C242.041 79.216 242.102 79.2003 242.37 79.3344C242.607 79.4532 242.925 79.6471 243.332 79.9313L244.478 78.2928C244.031 77.9797 243.624 77.7254 243.264 77.5456C242.935 77.381 242.526 77.216 242.113 77.216V79.216ZM243.34 79.9373C246.744 82.2659 251.041 83.7573 256.187 84.4549L256.455 82.4731C251.531 81.8054 247.552 80.3955 244.47 78.2867L243.34 79.9373ZM256.187 84.4549C261.265 85.1436 266.345 85.488 271.425 85.488V83.488C266.436 83.488 261.446 83.1498 256.455 82.4731L256.187 84.4549ZM271.425 85.488C276.347 85.488 281.645 85.0563 287.319 84.1967L287.019 82.2193C281.429 83.0663 276.231 83.488 271.425 83.488V85.488ZM287.317 84.197C293.077 83.3372 298.837 82.0907 304.594 80.4581L304.048 78.5339C298.371 80.1439 292.695 81.3721 287.021 82.219L287.317 84.197ZM304.603 80.4554C310.454 78.7344 316.134 76.5831 321.641 74.0015L320.793 72.1905C315.377 74.7289 309.793 76.8443 304.039 78.5366L304.603 80.4554ZM321.641 74.0015C327.162 71.4139 332.214 68.392 336.795 64.9342L335.591 63.3378C331.127 66.7067 326.195 69.6581 320.793 72.1905L321.641 74.0015ZM336.798 64.9325C343.933 59.5169 349.193 54.2296 352.522 49.0615L350.84 47.9785C347.684 52.8797 342.619 58.0031 335.588 63.3395L336.798 64.9325ZM352.522 49.0615C355.833 43.9202 357.545 38.9976 357.545 34.312H355.545C355.545 38.501 354.014 43.0504 350.84 47.9785L352.522 49.0615ZM357.545 34.312C357.545 29.1724 355.641 24.6205 351.892 20.6935L350.446 22.0745C353.865 25.6569 355.545 29.7236 355.545 34.312H357.545ZM351.892 20.6935C348.164 16.7875 343.011 13.8119 336.498 11.7276L335.888 13.6324C342.175 15.6441 347.006 18.4712 350.446 22.0745L351.892 20.6935ZM336.513 11.7326C330.071 9.55622 322.534 8.47999 313.921 8.47999V10.48C322.374 10.48 329.686 11.5371 335.873 13.6274L336.513 11.7326ZM313.921 8.47999C310.821 8.47999 307.638 8.60914 304.37 8.86709L304.528 10.8609C307.746 10.6068 310.877 10.48 313.921 10.48V8.47999ZM304.356 8.86835C298.843 9.38519 293.332 10.3326 287.822 11.7099L288.308 13.6501C293.721 12.2967 299.133 11.3668 304.542 10.8596L304.356 8.86835ZM287.833 11.7072C282.412 12.9979 277.204 14.6334 272.208 16.6144L272.946 18.4736C277.849 16.5292 282.966 14.9222 288.297 13.6529L287.833 11.7072ZM272.203 16.6166C267.298 18.5957 262.898 20.7515 259.007 23.0865L260.035 24.8015C263.824 22.5285 268.128 20.4177 272.951 18.4713L272.203 16.6166ZM259.007 23.0865C255.108 25.4253 251.992 27.8745 249.688 30.4444L251.178 31.7795C253.311 29.4001 256.254 27.0707 260.035 24.8015L259.007 23.0865ZM249.687 30.446C247.454 32.947 246.233 35.5209 246.233 38.152H248.233C248.233 36.1751 249.145 34.0557 251.179 31.778L249.687 30.446ZM246.233 38.152C246.233 39.8516 246.836 41.4997 247.952 43.0807L249.586 41.9273C248.654 40.607 248.233 39.3537 248.233 38.152H246.233ZM248.062 43.2111C248.097 43.2464 248.153 43.3156 248.153 43.528H250.153C250.153 42.8871 249.953 42.2736 249.476 41.7969L248.062 43.2111ZM248.153 43.528C248.153 43.5731 248.145 43.5639 248.163 43.5288C248.171 43.5122 248.182 43.4963 248.194 43.483C248.205 43.4701 248.214 43.4643 248.214 43.4639L249.324 45.128C249.892 44.7492 250.153 44.1606 250.153 43.528H248.153ZM248.453 43.3473C248.608 43.2957 248.703 43.3394 248.672 43.3277C248.658 43.3223 248.624 43.3077 248.57 43.2747C248.517 43.242 248.45 43.1955 248.37 43.1311L247.12 44.6929C247.379 44.9 247.664 45.0857 247.97 45.2003C248.28 45.3166 248.674 45.3816 249.085 45.2447L248.453 43.3473ZM248.488 43.243C247.84 42.5226 247.168 41.3315 246.503 39.588L244.635 40.3C245.336 42.1405 246.114 43.5947 247.002 44.581L248.488 43.243ZM246.509 39.6023C245.872 37.8499 245.545 35.877 245.545 33.672H243.545C243.545 36.075 243.901 38.2835 244.629 40.2857L246.509 39.6023ZM245.545 33.672C245.545 31.5187 246.023 29.2592 247.005 26.8863L245.157 26.1216C244.091 28.6981 243.545 31.2173 243.545 33.672H245.545ZM246.999 26.9016C248.027 24.5277 249.826 22.307 252.457 20.252L251.225 18.676C248.394 20.8876 246.353 23.3603 245.163 26.1064L246.999 26.9016ZM252.461 20.2489C255.628 17.7483 259.568 15.3973 264.294 13.203L263.452 11.389C258.621 13.632 254.539 16.0597 251.221 18.6791L252.461 20.2489ZM264.307 13.1968C269.035 10.9175 274.191 8.93029 279.779 7.23701L279.199 5.32296C273.523 7.04302 268.269 9.06649 263.439 11.3952L264.307 13.1968ZM279.775 7.23821C285.449 5.54451 291.251 4.23167 297.18 3.29986L296.87 1.32411C290.853 2.26963 284.964 3.60212 279.203 5.32176L279.775 7.23821ZM297.178 3.3002C303.188 2.36906 309.11 1.90399 314.945 1.90399V-0.0960083C309.004 -0.0960083 302.979 0.377577 296.872 1.32377L297.178 3.3002ZM314.945 1.90399C325.009 1.90399 333.169 3.42776 339.477 6.41572L340.333 4.60825C333.67 1.45221 325.19 -0.0960083 314.945 -0.0960083V1.90399ZM339.491 6.42235C345.922 9.34546 350.617 13.2394 353.65 18.0753L355.344 17.0127C352.062 11.7793 347.029 7.65184 340.319 4.60162L339.491 6.42235ZM353.654 18.0818C356.707 22.8675 358.233 28.1417 358.233 33.928H360.233C360.233 27.7676 358.602 22.1191 355.34 17.0062L353.654 18.0818ZM358.233 33.928C358.233 39.2237 356.951 44.6701 354.357 50.276L356.173 51.1159C358.869 45.2871 360.233 39.555 360.233 33.928H358.233ZM354.352 50.2873C351.848 55.8814 348.123 61.2033 343.16 66.2508L344.586 67.6531C349.692 62.4605 353.563 56.9452 356.178 51.1047L354.352 50.2873ZM343.154 66.257C338.292 71.2865 332.241 75.6615 324.986 79.3738L325.896 81.1542C333.318 77.3572 339.555 72.8575 344.592 67.647L343.154 66.257ZM325 79.3663C320.363 81.6428 315.21 83.6288 309.539 85.3218L310.111 87.2382C315.874 85.5179 321.132 83.4932 325.882 81.1617L325 79.3663ZM309.539 85.3218C303.866 87.0151 298.023 88.3279 292.008 89.2598L292.314 91.2362C298.416 90.2908 304.349 88.9582 310.111 87.2382L309.539 85.3218ZM292.008 89.2598C285.995 90.1913 280.201 90.656 274.625 90.656V92.656C280.313 92.656 286.209 92.182 292.314 91.2362L292.008 89.2598ZM261.697 73.376C261.723 73.376 261.79 73.3853 261.86 73.4319C261.923 73.4744 261.935 73.5115 261.919 73.4808C261.902 73.4462 261.87 73.3621 261.843 73.2036C261.817 73.0478 261.801 72.8437 261.801 72.584H259.801C259.801 73.2324 259.877 73.8676 260.131 74.3752C260.265 74.6432 260.463 74.9042 260.75 75.096C261.044 75.292 261.373 75.376 261.697 75.376V73.376ZM261.801 72.584C261.801 72.1415 261.924 71.4689 262.232 70.526C262.535 69.597 262.997 68.4639 263.626 67.1204L261.816 66.2716C261.165 67.6588 260.667 68.8723 260.33 69.906C259.998 70.9258 259.801 71.8318 259.801 72.584H261.801ZM263.615 67.1432C264.963 64.4475 266.739 61.3175 268.947 57.7504L267.247 56.6976C265.018 60.2985 263.209 63.4831 261.827 66.2488L263.615 67.1432ZM268.947 57.7504C271.158 54.1786 273.583 50.4348 276.222 46.5189L274.564 45.4011C271.912 49.3359 269.473 53.1014 267.247 56.6976L268.947 57.7504ZM276.22 46.5228C278.945 42.5203 281.669 38.6461 284.394 34.9002L282.776 33.7238C280.039 37.4872 277.303 41.3784 274.566 45.3972L276.22 46.5228ZM284.4 34.8915C287.124 31.0608 289.675 27.6167 292.054 24.558L290.476 23.3301C288.076 26.4154 285.507 29.8831 282.77 33.7325L284.4 34.8915ZM292.062 24.5474C294.444 21.4007 296.429 18.952 298.023 17.1909L296.539 15.8491C294.89 17.672 292.865 20.1726 290.468 23.3406L292.062 24.5474ZM298.021 17.1927C298.865 16.2638 299.53 15.5916 300.022 15.1587C300.269 14.9408 300.451 14.8037 300.573 14.7266C300.738 14.6231 300.677 14.704 300.481 14.704V12.704C300.072 12.704 299.717 12.9023 299.509 13.0334C299.258 13.191 298.986 13.4058 298.7 13.6573C298.126 14.163 297.403 14.8989 296.541 15.8473L298.021 17.1927ZM300.481 14.704H301.633V12.704H300.481V14.704ZM301.633 14.704C301.832 14.704 301.986 14.7155 302.099 14.7327C302.216 14.7504 302.267 14.7706 302.275 14.7744C302.282 14.7774 302.215 14.7489 302.147 14.6554C302.07 14.5507 302.041 14.4331 302.041 14.344H304.041C304.041 14.0416 303.954 13.7373 303.759 13.4726C303.573 13.2191 303.331 13.0572 303.103 12.9536C302.671 12.7575 302.147 12.704 301.633 12.704V14.704ZM302.041 14.344C302.041 14.2992 302.054 14.3595 301.933 14.5559C301.818 14.7433 301.62 14.991 301.31 15.3009L302.724 16.7151C303.097 16.3424 303.411 15.9714 303.637 15.6041C303.857 15.2459 304.041 14.8155 304.041 14.344H302.041ZM301.281 15.3314C298.363 18.507 295.277 22.1073 292.023 26.1312L293.579 27.3887C296.811 23.3913 299.869 19.8237 302.753 16.6846L301.281 15.3314ZM292.015 26.1414C288.847 30.1656 285.68 34.4026 282.514 38.8522L284.144 40.0118C287.292 35.5867 290.44 31.3757 293.587 27.3786L292.015 26.1414ZM282.52 38.8448C279.354 43.2081 276.359 47.5295 273.534 51.8091L275.204 52.9108C278.011 48.6571 280.989 44.36 284.138 40.0193L282.52 38.8448ZM273.527 51.8209C270.787 56.1012 268.387 60.0866 266.328 63.7766L268.074 64.7514C270.111 61.1027 272.489 57.1521 275.211 52.8991L273.527 51.8209ZM266.328 63.7766C264.268 67.467 262.749 70.5865 261.786 73.1253L263.656 73.8347C264.57 71.4241 266.038 68.3997 268.074 64.7514L266.328 63.7766ZM261.802 73.0861C261.709 73.3025 261.635 73.3818 261.614 73.3994C261.608 73.4052 261.616 73.3968 261.639 73.388C261.662 73.3788 261.684 73.376 261.697 73.376V75.376C262.718 75.376 263.321 74.6196 263.64 73.8739L261.802 73.0861ZM377.892 37.256L378.599 37.9631L378.608 37.954L378.617 37.9447L377.892 37.256ZM384.164 43.4L383.457 42.6929L383.447 42.7024L383.438 42.7123L384.164 43.4ZM352.292 82.952L351.503 83.5659L351.522 83.5904L351.542 83.6136L352.292 82.952ZM351.268 73.48L352.204 73.8311L352.208 73.822L352.211 73.8128L351.268 73.48ZM352.548 70.408L351.691 69.8935L351.685 69.9026L351.68 69.9119L352.548 70.408ZM354.596 67.464L353.833 66.8181L353.818 66.8358L353.803 66.8543L354.596 67.464ZM357.668 63.88L358.424 64.5349L357.02 63.1181L357.668 63.88ZM352.804 68.104L352.14 67.3566L352.129 67.366L352.119 67.3758L352.804 68.104ZM349.22 71.176L348.632 70.3673L348.568 70.4134L348.513 70.4689L349.22 71.176ZM349.348 68.872L349.936 69.6807L349.966 69.6591L349.994 69.6354L349.348 68.872ZM355.748 62.728L355.027 62.0349L355.02 62.0422L355.013 62.0497L355.748 62.728ZM361.764 56.584L362.471 57.2911L362.479 57.2832L362.487 57.2752L361.764 56.584ZM366.756 52.488L367.224 53.3718L367.233 53.3671L367.242 53.3622L366.756 52.488ZM374.82 50.952L374.195 51.7329L374.248 51.7749L374.306 51.8095L374.82 50.952ZM375.076 51.848L375.783 52.5551L375.833 52.5049L375.876 52.448L375.076 51.848ZM370.724 57.48L369.878 56.9472L369.872 56.9559L370.724 57.48ZM363.94 71.56L362.995 71.2329L362.989 71.2493L362.984 71.2659L363.94 71.56ZM371.748 78.216L372.241 79.0861L372.25 79.0808L371.748 78.216ZM379.94 72.456L379.318 71.6729L379.312 71.6774L379.307 71.682L379.94 72.456ZM388.004 65.672L388.672 66.4166L388.692 66.3984L388.711 66.3791L388.004 65.672ZM389.54 65.8H388.54V65.899L388.559 65.9961L389.54 65.8ZM389.284 66.696L388.729 65.8639L388.66 65.9101L388.599 65.9672L389.284 66.696ZM379.684 75.016L380.311 75.795L380.313 75.7932L379.684 75.016ZM369.06 82.184L368.58 81.3069L368.571 81.3119L369.06 82.184ZM379.044 44.832C378.08 44.832 377.51 44.5349 377.145 44.0661L375.567 45.2939C376.397 46.3611 377.619 46.832 379.044 46.832V44.832ZM377.145 44.0661C376.664 43.4478 376.46 42.8483 376.46 42.248H374.46C374.46 43.3543 374.853 44.3762 375.567 45.2939L377.145 44.0661ZM376.46 42.248C376.46 40.8876 377.099 39.4633 378.599 37.9631L377.185 36.5489C375.442 38.2914 374.46 40.1951 374.46 42.248H376.46ZM378.617 37.9447C380.112 36.3716 381.573 35.696 383.012 35.696V33.696C380.867 33.696 378.915 34.7271 377.167 36.5672L378.617 37.9447ZM383.012 35.696C383.976 35.696 384.546 35.9931 384.911 36.4619L386.489 35.2341C385.659 34.1669 384.437 33.696 383.012 33.696V35.696ZM384.911 36.4619C385.392 37.0802 385.596 37.6797 385.596 38.28H387.596C387.596 37.1737 387.203 36.1518 386.489 35.2341L384.911 36.4619ZM385.596 38.28C385.596 39.7381 384.946 41.2042 383.457 42.6929L384.871 44.1071C386.625 42.3532 387.596 40.4059 387.596 38.28H385.596ZM383.438 42.7123C382.052 44.1752 380.595 44.832 379.044 44.832V46.832C381.248 46.832 383.204 45.8675 384.89 44.0877L383.438 42.7123ZM359.46 84.128C356.033 84.128 354.025 83.4049 353.042 82.2904L351.542 83.6136C353.119 85.4005 355.89 86.128 359.46 86.128V84.128ZM353.081 82.3381C352.018 80.9707 351.5 79.4784 351.5 77.832H349.5C349.5 79.9403 350.177 81.8613 351.503 83.5659L353.081 82.3381ZM351.5 77.832C351.5 76.4094 351.737 75.0783 352.204 73.8311L350.332 73.1289C349.775 74.6124 349.5 76.1826 349.5 77.832H351.5ZM352.211 73.8128C352.721 72.367 353.123 71.417 353.416 70.9041L351.68 69.9119C351.29 70.5937 350.839 71.6917 350.325 73.1472L352.211 73.8128ZM353.405 70.9225C353.892 70.1123 354.55 69.1638 355.389 68.0737L353.803 66.8543C352.935 67.9829 352.228 68.997 351.691 69.8935L353.405 70.9225ZM355.359 68.1099C356.295 67.0041 357.317 65.8124 358.424 64.5349L356.912 63.2251C355.801 64.5076 354.774 65.7053 353.833 66.8181L355.359 68.1099ZM357.02 63.1181C355.309 64.5731 353.682 65.9859 352.14 67.3566L353.468 68.8514C354.998 67.4914 356.614 66.0882 358.316 64.6419L357.02 63.1181ZM352.119 67.3758C350.68 68.7295 349.521 69.7207 348.632 70.3673L349.808 71.9847C350.797 71.2659 352.026 70.2091 353.489 68.8322L352.119 67.3758ZM348.513 70.4689C348.442 70.5401 348.399 70.5644 348.389 70.5696C348.385 70.5717 348.389 70.569 348.401 70.5659C348.414 70.5626 348.432 70.56 348.452 70.56V72.56C349.067 72.56 349.562 72.2481 349.927 71.8831L348.513 70.4689ZM348.452 70.56C348.469 70.56 348.53 70.5626 348.613 70.5969C348.701 70.6338 348.785 70.6954 348.849 70.7753C348.966 70.9213 348.94 71.0265 348.94 70.92H346.94C346.94 71.2402 347 71.6654 347.287 72.0247C347.609 72.4266 348.061 72.56 348.452 72.56V70.56ZM348.94 70.92C348.94 70.7279 349.077 70.3053 349.936 69.6807L348.76 68.0633C347.741 68.804 346.94 69.7468 346.94 70.92H348.94ZM349.994 69.6354C352.245 67.7305 354.408 65.6539 356.483 63.4063L355.013 62.0497C352.992 64.2394 350.888 66.2588 348.702 68.1086L349.994 69.6354ZM356.469 63.4211C358.598 61.2064 360.599 59.1632 362.471 57.2911L361.057 55.8769C359.174 57.7595 357.164 59.8122 355.027 62.0349L356.469 63.4211ZM362.487 57.2752C364.332 55.3463 365.91 54.0676 367.224 53.3718L366.288 51.6042C364.701 52.4444 362.951 53.8964 361.041 55.8928L362.487 57.2752ZM367.242 53.3622C368.754 52.5219 369.909 52.0131 370.731 51.7888L370.205 49.8592C369.15 50.1469 367.83 50.7474 366.27 51.6138L367.242 53.3622ZM370.731 51.7888C371.631 51.5435 372.301 51.44 372.772 51.44V49.44C372.048 49.44 371.183 49.5925 370.205 49.8592L370.731 51.7888ZM372.772 51.44C373.631 51.44 374.034 51.6041 374.195 51.7329L375.445 50.1711C374.752 49.6172 373.79 49.44 372.772 49.44V51.44ZM374.306 51.8095C374.426 51.8818 374.301 51.8482 374.242 51.6427C374.211 51.532 374.216 51.4249 374.238 51.3423C374.257 51.2686 374.284 51.2369 374.276 51.248L375.876 52.448C376.117 52.1272 376.323 51.6462 376.166 51.0933C376.021 50.5891 375.641 50.2782 375.334 50.0945L374.306 51.8095ZM374.369 51.1409C372.852 52.6582 371.356 54.5992 369.878 56.9472L371.57 58.0128C372.993 55.7528 374.399 53.9391 375.783 52.5551L374.369 51.1409ZM369.872 56.9559C368.488 59.205 367.192 61.5816 365.983 64.0852L367.785 64.9547C368.965 62.509 370.229 60.1923 371.576 58.0041L369.872 56.9559ZM365.983 64.0852C364.775 66.5892 363.778 68.972 362.995 71.2329L364.885 71.8871C365.638 69.7107 366.604 67.4002 367.785 64.9547L365.983 64.0852ZM362.984 71.2659C362.286 73.5364 361.916 75.5193 361.916 77.192H363.916C363.916 75.7927 364.229 74.0209 364.896 71.8541L362.984 71.2659ZM361.916 77.192C361.916 78.3655 362.146 79.4307 362.775 80.2167C363.438 81.0453 364.402 81.392 365.476 81.392V79.392C364.843 79.392 364.527 79.2054 364.337 78.9673C364.112 78.6866 363.916 78.1518 363.916 77.192H361.916ZM365.476 81.392C367.36 81.392 369.635 80.5628 372.241 79.0861L371.255 77.346C368.741 78.7707 366.835 79.392 365.476 79.392V81.392ZM372.25 79.0808C374.949 77.5136 377.724 75.5616 380.573 73.23L379.307 71.682C376.524 73.9584 373.837 75.8464 371.246 77.3512L372.25 79.0808ZM380.562 73.2391C383.477 70.9241 386.18 68.6499 388.672 66.4166L387.336 64.9274C384.878 67.1314 382.206 69.3799 379.318 71.6729L380.562 73.2391ZM388.711 66.3791C388.842 66.2481 388.932 66.1837 388.98 66.1562C389.028 66.1287 388.996 66.16 388.9 66.16V64.16C388.225 64.16 387.677 64.5844 387.297 64.9649L388.711 66.3791ZM388.9 66.16C388.959 66.16 388.82 66.1741 388.673 66.0271C388.526 65.8801 388.54 65.7408 388.54 65.8H390.54C390.54 65.4325 390.447 64.9732 390.087 64.6129C389.727 64.2525 389.267 64.16 388.9 64.16V66.16ZM388.559 65.9961C388.583 66.1122 388.563 66.122 388.578 66.0693C388.587 66.0393 388.604 65.9984 388.635 65.9558C388.666 65.9132 388.701 65.8829 388.729 65.8639L389.839 67.5281C390.571 67.0397 390.646 66.2329 390.521 65.6039L388.559 65.9961ZM388.599 65.9672C385.804 68.5928 382.623 71.35 379.055 74.2388L380.313 75.7932C383.913 72.8793 387.132 70.0898 389.969 67.4248L388.599 65.9672ZM379.057 74.237C375.6 77.0196 372.107 79.3752 368.58 81.3069L369.54 83.0611C373.181 81.0675 376.771 78.6444 380.311 75.795L379.057 74.237ZM368.571 81.3119C365.167 83.2212 362.137 84.128 359.46 84.128V86.128C362.586 86.128 365.956 85.0721 369.549 83.0561L368.571 81.3119Z" fill="#F0F0F1"/>
</g>
</g>
<defs>
<clipPath id="clip0_46_2">
<rect width="390" height="92" fill="white"/>
</clipPath>
</defs>
</svg>
