<svg width="20" height="20" viewBox="0 0 20 20" fill="none" xmlns="http://www.w3.org/2000/svg">
    <path fill-rule="evenodd" clip-rule="evenodd" d="M4.77724 1.7025C5.79169 0.693819 7.462 0.873367 8.31142 2.00802L9.36226 3.41168C10.0534 4.33492 9.99242 5.62527 9.17201 6.44102L8.97301 6.63887C8.96434 6.66412 8.94326 6.74346 8.96667 6.89425C9.01934 7.23383 9.30292 7.95417 10.4933 9.13783C11.6833 10.3211 12.4088 10.6044 12.7532 10.6572C12.9093 10.6812 12.9909 10.6588 13.0162 10.65L13.3562 10.3119C14.0855 9.58675 15.2063 9.45117 16.1093 9.94208L17.7013 10.8076C19.0646 11.5487 19.4091 13.4017 18.2921 14.5123L17.1083 15.6894C16.7353 16.0602 16.2338 16.3695 15.6216 16.4266C14.1141 16.5672 10.5989 16.3878 6.9055 12.7153C3.45724 9.28667 2.79552 6.29667 2.7118 4.82347C2.66947 4.07855 3.02147 3.4483 3.46924 3.00307L4.77724 1.7025ZM7.31077 2.75713C6.88857 2.19318 6.10167 2.14834 5.65861 2.5889L4.35061 3.88947C4.07567 4.16285 3.94339 4.46413 3.95978 4.75256C4.02631 5.92305 4.56072 8.62108 7.78687 11.8289C11.1714 15.1942 14.2974 15.2947 15.5056 15.182C15.7524 15.159 15.9979 15.0307 16.227 14.803L17.4108 13.6259C17.892 13.1475 17.7858 12.2762 17.1043 11.9057L15.5123 11.0403C15.0726 10.8013 14.5575 10.8802 14.2375 11.1983L13.858 11.5757L13.4173 11.1325C13.858 11.5757 13.8574 11.5763 13.8568 11.5769L13.8556 11.5781L13.853 11.5806L13.8476 11.5858L13.8354 11.5972C13.8267 11.6052 13.8166 11.6139 13.8053 11.6233C13.7827 11.6421 13.7548 11.6632 13.7216 11.6856C13.6548 11.7302 13.5668 11.7789 13.456 11.8201C13.2303 11.9042 12.9327 11.9493 12.5637 11.8927C11.8413 11.782 10.8845 11.2895 9.61201 10.0242C8.33992 8.75942 7.84329 7.80695 7.73142 7.08588C7.67422 6.71718 7.71985 6.41942 7.80496 6.19354C7.84667 6.08284 7.89582 5.99482 7.94092 5.92824C7.96342 5.89504 7.98483 5.86728 8.00372 5.84473C8.01317 5.83346 8.02201 5.82348 8.03004 5.81475L8.04148 5.8026L8.04672 5.79722L8.04922 5.79469L8.05043 5.79347C8.05102 5.79288 8.05162 5.79229 8.49234 6.23548L8.05162 5.79229L8.29063 5.55463C8.64784 5.19949 8.69784 4.60995 8.36159 4.16081L7.31077 2.75713Z" fill="#0F0F0F"/>
</svg>
